G04 EAGLE Gerber X2 export*
%TF.Part,Single*%
%TF.FileFunction,Profile,NP*%
%TF.FilePolarity,Positive*%
%TF.GenerationSoftware,Autodesk,EAGLE,9.1.0*%
%TF.CreationDate,2018-09-11T12:43:45Z*%
G75*
%MOMM*%
%FSLAX34Y34*%
%LPD*%
%AMOC8*
5,1,8,0,0,1.08239X$1,22.5*%
G01*
%ADD10C,0.254000*%


D10*
X330000Y495000D02*
X950000Y495000D01*
X950000Y800000D01*
X330000Y800000D01*
X330000Y495000D01*
X864344Y635400D02*
X865028Y635333D01*
X865703Y635198D01*
X866361Y634999D01*
X866997Y634736D01*
X867603Y634411D01*
X868175Y634029D01*
X868707Y633593D01*
X869193Y633107D01*
X869629Y632575D01*
X870011Y632003D01*
X870336Y631397D01*
X870599Y630761D01*
X870798Y630103D01*
X870933Y629428D01*
X871000Y628744D01*
X871000Y628056D01*
X870933Y627372D01*
X870798Y626697D01*
X870599Y626039D01*
X870336Y625404D01*
X870011Y624797D01*
X869629Y624225D01*
X869193Y623693D01*
X868707Y623207D01*
X868175Y622771D01*
X867603Y622389D01*
X866997Y622064D01*
X866361Y621801D01*
X865703Y621602D01*
X865028Y621467D01*
X864344Y621400D01*
X863656Y621400D01*
X862972Y621467D01*
X862297Y621602D01*
X861639Y621801D01*
X861004Y622064D01*
X860397Y622389D01*
X859825Y622771D01*
X859293Y623207D01*
X858807Y623693D01*
X858371Y624225D01*
X857989Y624797D01*
X857664Y625404D01*
X857401Y626039D01*
X857202Y626697D01*
X857067Y627372D01*
X857000Y628056D01*
X857000Y628744D01*
X857067Y629428D01*
X857202Y630103D01*
X857401Y630761D01*
X857664Y631397D01*
X857989Y632003D01*
X858371Y632575D01*
X858807Y633107D01*
X859293Y633593D01*
X859825Y634029D01*
X860397Y634411D01*
X861004Y634736D01*
X861639Y634999D01*
X862297Y635198D01*
X862972Y635333D01*
X863656Y635400D01*
X864344Y635400D01*
X864344Y686200D02*
X865028Y686133D01*
X865703Y685998D01*
X866361Y685799D01*
X866997Y685536D01*
X867603Y685211D01*
X868175Y684829D01*
X868707Y684393D01*
X869193Y683907D01*
X869629Y683375D01*
X870011Y682803D01*
X870336Y682197D01*
X870599Y681561D01*
X870798Y680903D01*
X870933Y680228D01*
X871000Y679544D01*
X871000Y678856D01*
X870933Y678172D01*
X870798Y677497D01*
X870599Y676839D01*
X870336Y676204D01*
X870011Y675597D01*
X869629Y675025D01*
X869193Y674493D01*
X868707Y674007D01*
X868175Y673571D01*
X867603Y673189D01*
X866997Y672864D01*
X866361Y672601D01*
X865703Y672402D01*
X865028Y672267D01*
X864344Y672200D01*
X863656Y672200D01*
X862972Y672267D01*
X862297Y672402D01*
X861639Y672601D01*
X861004Y672864D01*
X860397Y673189D01*
X859825Y673571D01*
X859293Y674007D01*
X858807Y674493D01*
X858371Y675025D01*
X857989Y675597D01*
X857664Y676204D01*
X857401Y676839D01*
X857202Y677497D01*
X857067Y678172D01*
X857000Y678856D01*
X857000Y679544D01*
X857067Y680228D01*
X857202Y680903D01*
X857401Y681561D01*
X857664Y682197D01*
X857989Y682803D01*
X858371Y683375D01*
X858807Y683907D01*
X859293Y684393D01*
X859825Y684829D01*
X860397Y685211D01*
X861004Y685536D01*
X861639Y685799D01*
X862297Y685998D01*
X862972Y686133D01*
X863656Y686200D01*
X864344Y686200D01*
M02*
