G04 EAGLE Gerber X2 export*
%TF.Part,Single*%
%TF.FileFunction,Paste,Top*%
%TF.FilePolarity,Positive*%
%TF.GenerationSoftware,Autodesk,EAGLE,9.1.0*%
%TF.CreationDate,2018-09-11T12:43:45Z*%
G75*
%MOMM*%
%FSLAX34Y34*%
%LPD*%
%AMOC8*
5,1,8,0,0,1.08239X$1,22.5*%
G01*
%ADD10R,1.300000X3.300000*%
%ADD11R,3.000000X1.000000*%

G36*
X667065Y740377D02*
X667065Y740377D01*
X667131Y740379D01*
X667174Y740397D01*
X667221Y740405D01*
X667278Y740439D01*
X667338Y740464D01*
X667373Y740495D01*
X667414Y740520D01*
X667456Y740571D01*
X667504Y740615D01*
X667526Y740657D01*
X667555Y740694D01*
X667576Y740756D01*
X667607Y740815D01*
X667615Y740869D01*
X667627Y740906D01*
X667626Y740946D01*
X667634Y741000D01*
X667634Y774000D01*
X667623Y774065D01*
X667621Y774131D01*
X667603Y774174D01*
X667595Y774221D01*
X667561Y774278D01*
X667536Y774338D01*
X667505Y774373D01*
X667480Y774414D01*
X667429Y774456D01*
X667385Y774504D01*
X667343Y774526D01*
X667306Y774555D01*
X667244Y774576D01*
X667185Y774607D01*
X667131Y774615D01*
X667094Y774627D01*
X667054Y774626D01*
X667000Y774634D01*
X662000Y774634D01*
X661935Y774623D01*
X661869Y774621D01*
X661826Y774603D01*
X661779Y774595D01*
X661722Y774561D01*
X661662Y774536D01*
X661627Y774505D01*
X661586Y774480D01*
X661545Y774429D01*
X661496Y774385D01*
X661474Y774343D01*
X661445Y774306D01*
X661424Y774244D01*
X661393Y774185D01*
X661385Y774131D01*
X661373Y774094D01*
X661373Y774076D01*
X661373Y774075D01*
X661373Y774051D01*
X661366Y774000D01*
X661366Y760634D01*
X658000Y760634D01*
X657935Y760623D01*
X657869Y760621D01*
X657826Y760603D01*
X657779Y760595D01*
X657722Y760561D01*
X657662Y760536D01*
X657627Y760505D01*
X657586Y760480D01*
X657545Y760429D01*
X657496Y760385D01*
X657474Y760343D01*
X657445Y760306D01*
X657424Y760244D01*
X657393Y760185D01*
X657385Y760131D01*
X657373Y760094D01*
X657374Y760054D01*
X657366Y760000D01*
X657366Y755000D01*
X657377Y754935D01*
X657379Y754869D01*
X657397Y754826D01*
X657405Y754779D01*
X657439Y754722D01*
X657464Y754662D01*
X657495Y754627D01*
X657520Y754586D01*
X657571Y754545D01*
X657615Y754496D01*
X657657Y754474D01*
X657694Y754445D01*
X657756Y754424D01*
X657815Y754393D01*
X657869Y754385D01*
X657906Y754373D01*
X657946Y754374D01*
X658000Y754366D01*
X661366Y754366D01*
X661366Y741000D01*
X661377Y740935D01*
X661379Y740869D01*
X661397Y740826D01*
X661405Y740779D01*
X661439Y740722D01*
X661464Y740662D01*
X661495Y740627D01*
X661520Y740586D01*
X661571Y740545D01*
X661615Y740496D01*
X661657Y740474D01*
X661694Y740445D01*
X661756Y740424D01*
X661815Y740393D01*
X661869Y740385D01*
X661906Y740373D01*
X661946Y740374D01*
X662000Y740366D01*
X667000Y740366D01*
X667065Y740377D01*
G37*
G36*
X519565Y740377D02*
X519565Y740377D01*
X519631Y740379D01*
X519674Y740397D01*
X519721Y740405D01*
X519778Y740439D01*
X519838Y740464D01*
X519873Y740495D01*
X519914Y740520D01*
X519956Y740571D01*
X520004Y740615D01*
X520026Y740657D01*
X520055Y740694D01*
X520076Y740756D01*
X520107Y740815D01*
X520115Y740869D01*
X520127Y740906D01*
X520126Y740946D01*
X520134Y741000D01*
X520134Y754366D01*
X523500Y754366D01*
X523565Y754377D01*
X523631Y754379D01*
X523674Y754397D01*
X523721Y754405D01*
X523778Y754439D01*
X523838Y754464D01*
X523873Y754495D01*
X523914Y754520D01*
X523956Y754571D01*
X524004Y754615D01*
X524026Y754657D01*
X524055Y754694D01*
X524076Y754756D01*
X524107Y754815D01*
X524115Y754869D01*
X524127Y754906D01*
X524126Y754946D01*
X524134Y755000D01*
X524134Y760000D01*
X524123Y760065D01*
X524121Y760131D01*
X524103Y760174D01*
X524095Y760221D01*
X524061Y760278D01*
X524036Y760338D01*
X524005Y760373D01*
X523980Y760414D01*
X523929Y760456D01*
X523885Y760504D01*
X523843Y760526D01*
X523806Y760555D01*
X523744Y760576D01*
X523685Y760607D01*
X523631Y760615D01*
X523594Y760627D01*
X523554Y760626D01*
X523500Y760634D01*
X520134Y760634D01*
X520134Y774000D01*
X520123Y774065D01*
X520121Y774131D01*
X520103Y774174D01*
X520095Y774221D01*
X520061Y774278D01*
X520036Y774338D01*
X520005Y774373D01*
X519980Y774414D01*
X519929Y774456D01*
X519885Y774504D01*
X519843Y774526D01*
X519806Y774555D01*
X519744Y774576D01*
X519685Y774607D01*
X519631Y774615D01*
X519594Y774627D01*
X519554Y774626D01*
X519500Y774634D01*
X514500Y774634D01*
X514435Y774623D01*
X514369Y774621D01*
X514326Y774603D01*
X514279Y774595D01*
X514222Y774561D01*
X514162Y774536D01*
X514127Y774505D01*
X514086Y774480D01*
X514045Y774429D01*
X513996Y774385D01*
X513974Y774343D01*
X513945Y774306D01*
X513924Y774244D01*
X513893Y774185D01*
X513885Y774131D01*
X513873Y774094D01*
X513873Y774076D01*
X513873Y774075D01*
X513873Y774051D01*
X513866Y774000D01*
X513866Y741000D01*
X513877Y740935D01*
X513879Y740869D01*
X513897Y740826D01*
X513905Y740779D01*
X513939Y740722D01*
X513964Y740662D01*
X513995Y740627D01*
X514020Y740586D01*
X514071Y740545D01*
X514115Y740496D01*
X514157Y740474D01*
X514194Y740445D01*
X514256Y740424D01*
X514315Y740393D01*
X514369Y740385D01*
X514406Y740373D01*
X514446Y740374D01*
X514500Y740366D01*
X519500Y740366D01*
X519565Y740377D01*
G37*
G36*
X491565Y740377D02*
X491565Y740377D01*
X491631Y740379D01*
X491674Y740397D01*
X491721Y740405D01*
X491778Y740439D01*
X491838Y740464D01*
X491873Y740495D01*
X491914Y740520D01*
X491956Y740571D01*
X492004Y740615D01*
X492026Y740657D01*
X492055Y740694D01*
X492076Y740756D01*
X492107Y740815D01*
X492115Y740869D01*
X492127Y740906D01*
X492126Y740946D01*
X492134Y741000D01*
X492134Y774000D01*
X492123Y774065D01*
X492121Y774131D01*
X492103Y774174D01*
X492095Y774221D01*
X492061Y774278D01*
X492036Y774338D01*
X492005Y774373D01*
X491980Y774414D01*
X491929Y774456D01*
X491885Y774504D01*
X491843Y774526D01*
X491806Y774555D01*
X491744Y774576D01*
X491685Y774607D01*
X491631Y774615D01*
X491594Y774627D01*
X491554Y774626D01*
X491500Y774634D01*
X486500Y774634D01*
X486435Y774623D01*
X486369Y774621D01*
X486326Y774603D01*
X486279Y774595D01*
X486222Y774561D01*
X486162Y774536D01*
X486127Y774505D01*
X486086Y774480D01*
X486045Y774429D01*
X485996Y774385D01*
X485974Y774343D01*
X485945Y774306D01*
X485924Y774244D01*
X485893Y774185D01*
X485885Y774131D01*
X485873Y774094D01*
X485873Y774076D01*
X485873Y774075D01*
X485873Y774051D01*
X485866Y774000D01*
X485866Y760634D01*
X482500Y760634D01*
X482435Y760623D01*
X482369Y760621D01*
X482326Y760603D01*
X482279Y760595D01*
X482222Y760561D01*
X482162Y760536D01*
X482127Y760505D01*
X482086Y760480D01*
X482045Y760429D01*
X481996Y760385D01*
X481974Y760343D01*
X481945Y760306D01*
X481924Y760244D01*
X481893Y760185D01*
X481885Y760131D01*
X481873Y760094D01*
X481874Y760054D01*
X481866Y760000D01*
X481866Y755000D01*
X481877Y754935D01*
X481879Y754869D01*
X481897Y754826D01*
X481905Y754779D01*
X481939Y754722D01*
X481964Y754662D01*
X481995Y754627D01*
X482020Y754586D01*
X482071Y754545D01*
X482115Y754496D01*
X482157Y754474D01*
X482194Y754445D01*
X482256Y754424D01*
X482315Y754393D01*
X482369Y754385D01*
X482406Y754373D01*
X482446Y754374D01*
X482500Y754366D01*
X485866Y754366D01*
X485866Y741000D01*
X485877Y740935D01*
X485879Y740869D01*
X485897Y740826D01*
X485905Y740779D01*
X485939Y740722D01*
X485964Y740662D01*
X485995Y740627D01*
X486020Y740586D01*
X486071Y740545D01*
X486115Y740496D01*
X486157Y740474D01*
X486194Y740445D01*
X486256Y740424D01*
X486315Y740393D01*
X486369Y740385D01*
X486406Y740373D01*
X486446Y740374D01*
X486500Y740366D01*
X491500Y740366D01*
X491565Y740377D01*
G37*
G36*
X374565Y740377D02*
X374565Y740377D01*
X374631Y740379D01*
X374674Y740397D01*
X374721Y740405D01*
X374778Y740439D01*
X374838Y740464D01*
X374873Y740495D01*
X374914Y740520D01*
X374956Y740571D01*
X375004Y740615D01*
X375026Y740657D01*
X375055Y740694D01*
X375076Y740756D01*
X375107Y740815D01*
X375115Y740869D01*
X375127Y740906D01*
X375126Y740946D01*
X375134Y741000D01*
X375134Y774000D01*
X375123Y774065D01*
X375121Y774131D01*
X375103Y774174D01*
X375095Y774221D01*
X375061Y774278D01*
X375036Y774338D01*
X375005Y774373D01*
X374980Y774414D01*
X374929Y774456D01*
X374885Y774504D01*
X374843Y774526D01*
X374806Y774555D01*
X374744Y774576D01*
X374685Y774607D01*
X374631Y774615D01*
X374594Y774627D01*
X374554Y774626D01*
X374500Y774634D01*
X369500Y774634D01*
X369435Y774623D01*
X369369Y774621D01*
X369326Y774603D01*
X369279Y774595D01*
X369222Y774561D01*
X369162Y774536D01*
X369127Y774505D01*
X369086Y774480D01*
X369045Y774429D01*
X368996Y774385D01*
X368974Y774343D01*
X368945Y774306D01*
X368924Y774244D01*
X368893Y774185D01*
X368885Y774131D01*
X368873Y774094D01*
X368873Y774076D01*
X368873Y774075D01*
X368873Y774051D01*
X368866Y774000D01*
X368866Y760634D01*
X365500Y760634D01*
X365435Y760623D01*
X365369Y760621D01*
X365326Y760603D01*
X365279Y760595D01*
X365222Y760561D01*
X365162Y760536D01*
X365127Y760505D01*
X365086Y760480D01*
X365045Y760429D01*
X364996Y760385D01*
X364974Y760343D01*
X364945Y760306D01*
X364924Y760244D01*
X364893Y760185D01*
X364885Y760131D01*
X364873Y760094D01*
X364874Y760054D01*
X364866Y760000D01*
X364866Y755000D01*
X364877Y754935D01*
X364879Y754869D01*
X364897Y754826D01*
X364905Y754779D01*
X364939Y754722D01*
X364964Y754662D01*
X364995Y754627D01*
X365020Y754586D01*
X365071Y754545D01*
X365115Y754496D01*
X365157Y754474D01*
X365194Y754445D01*
X365256Y754424D01*
X365315Y754393D01*
X365369Y754385D01*
X365406Y754373D01*
X365446Y754374D01*
X365500Y754366D01*
X368866Y754366D01*
X368866Y741000D01*
X368877Y740935D01*
X368879Y740869D01*
X368897Y740826D01*
X368905Y740779D01*
X368939Y740722D01*
X368964Y740662D01*
X368995Y740627D01*
X369020Y740586D01*
X369071Y740545D01*
X369115Y740496D01*
X369157Y740474D01*
X369194Y740445D01*
X369256Y740424D01*
X369315Y740393D01*
X369369Y740385D01*
X369406Y740373D01*
X369446Y740374D01*
X369500Y740366D01*
X374500Y740366D01*
X374565Y740377D01*
G37*
G36*
X636565Y740377D02*
X636565Y740377D01*
X636631Y740379D01*
X636674Y740397D01*
X636721Y740405D01*
X636778Y740439D01*
X636838Y740464D01*
X636873Y740495D01*
X636914Y740520D01*
X636956Y740571D01*
X637004Y740615D01*
X637026Y740657D01*
X637055Y740694D01*
X637076Y740756D01*
X637107Y740815D01*
X637115Y740869D01*
X637127Y740906D01*
X637126Y740946D01*
X637134Y741000D01*
X637134Y754366D01*
X640500Y754366D01*
X640565Y754377D01*
X640631Y754379D01*
X640674Y754397D01*
X640721Y754405D01*
X640778Y754439D01*
X640838Y754464D01*
X640873Y754495D01*
X640914Y754520D01*
X640956Y754571D01*
X641004Y754615D01*
X641026Y754657D01*
X641055Y754694D01*
X641076Y754756D01*
X641107Y754815D01*
X641115Y754869D01*
X641127Y754906D01*
X641126Y754946D01*
X641134Y755000D01*
X641134Y760000D01*
X641123Y760065D01*
X641121Y760131D01*
X641103Y760174D01*
X641095Y760221D01*
X641061Y760278D01*
X641036Y760338D01*
X641005Y760373D01*
X640980Y760414D01*
X640929Y760456D01*
X640885Y760504D01*
X640843Y760526D01*
X640806Y760555D01*
X640744Y760576D01*
X640685Y760607D01*
X640631Y760615D01*
X640594Y760627D01*
X640554Y760626D01*
X640500Y760634D01*
X637134Y760634D01*
X637134Y774000D01*
X637123Y774065D01*
X637121Y774131D01*
X637103Y774174D01*
X637095Y774221D01*
X637061Y774278D01*
X637036Y774338D01*
X637005Y774373D01*
X636980Y774414D01*
X636929Y774456D01*
X636885Y774504D01*
X636843Y774526D01*
X636806Y774555D01*
X636744Y774576D01*
X636685Y774607D01*
X636631Y774615D01*
X636594Y774627D01*
X636554Y774626D01*
X636500Y774634D01*
X631500Y774634D01*
X631435Y774623D01*
X631369Y774621D01*
X631326Y774603D01*
X631279Y774595D01*
X631222Y774561D01*
X631162Y774536D01*
X631127Y774505D01*
X631086Y774480D01*
X631045Y774429D01*
X630996Y774385D01*
X630974Y774343D01*
X630945Y774306D01*
X630924Y774244D01*
X630893Y774185D01*
X630885Y774131D01*
X630873Y774094D01*
X630873Y774076D01*
X630873Y774075D01*
X630873Y774051D01*
X630866Y774000D01*
X630866Y741000D01*
X630877Y740935D01*
X630879Y740869D01*
X630897Y740826D01*
X630905Y740779D01*
X630939Y740722D01*
X630964Y740662D01*
X630995Y740627D01*
X631020Y740586D01*
X631071Y740545D01*
X631115Y740496D01*
X631157Y740474D01*
X631194Y740445D01*
X631256Y740424D01*
X631315Y740393D01*
X631369Y740385D01*
X631406Y740373D01*
X631446Y740374D01*
X631500Y740366D01*
X636500Y740366D01*
X636565Y740377D01*
G37*
G36*
X550065Y740377D02*
X550065Y740377D01*
X550131Y740379D01*
X550174Y740397D01*
X550221Y740405D01*
X550278Y740439D01*
X550338Y740464D01*
X550373Y740495D01*
X550414Y740520D01*
X550456Y740571D01*
X550504Y740615D01*
X550526Y740657D01*
X550555Y740694D01*
X550576Y740756D01*
X550607Y740815D01*
X550615Y740869D01*
X550627Y740906D01*
X550626Y740946D01*
X550634Y741000D01*
X550634Y774000D01*
X550623Y774065D01*
X550621Y774131D01*
X550603Y774174D01*
X550595Y774221D01*
X550561Y774278D01*
X550536Y774338D01*
X550505Y774373D01*
X550480Y774414D01*
X550429Y774456D01*
X550385Y774504D01*
X550343Y774526D01*
X550306Y774555D01*
X550244Y774576D01*
X550185Y774607D01*
X550131Y774615D01*
X550094Y774627D01*
X550054Y774626D01*
X550000Y774634D01*
X545000Y774634D01*
X544935Y774623D01*
X544869Y774621D01*
X544826Y774603D01*
X544779Y774595D01*
X544722Y774561D01*
X544662Y774536D01*
X544627Y774505D01*
X544586Y774480D01*
X544545Y774429D01*
X544496Y774385D01*
X544474Y774343D01*
X544445Y774306D01*
X544424Y774244D01*
X544393Y774185D01*
X544385Y774131D01*
X544373Y774094D01*
X544373Y774076D01*
X544373Y774075D01*
X544373Y774051D01*
X544366Y774000D01*
X544366Y760634D01*
X541000Y760634D01*
X540935Y760623D01*
X540869Y760621D01*
X540826Y760603D01*
X540779Y760595D01*
X540722Y760561D01*
X540662Y760536D01*
X540627Y760505D01*
X540586Y760480D01*
X540545Y760429D01*
X540496Y760385D01*
X540474Y760343D01*
X540445Y760306D01*
X540424Y760244D01*
X540393Y760185D01*
X540385Y760131D01*
X540373Y760094D01*
X540374Y760054D01*
X540366Y760000D01*
X540366Y755000D01*
X540377Y754935D01*
X540379Y754869D01*
X540397Y754826D01*
X540405Y754779D01*
X540439Y754722D01*
X540464Y754662D01*
X540495Y754627D01*
X540520Y754586D01*
X540571Y754545D01*
X540615Y754496D01*
X540657Y754474D01*
X540694Y754445D01*
X540756Y754424D01*
X540815Y754393D01*
X540869Y754385D01*
X540906Y754373D01*
X540946Y754374D01*
X541000Y754366D01*
X544366Y754366D01*
X544366Y741000D01*
X544377Y740935D01*
X544379Y740869D01*
X544397Y740826D01*
X544405Y740779D01*
X544439Y740722D01*
X544464Y740662D01*
X544495Y740627D01*
X544520Y740586D01*
X544571Y740545D01*
X544615Y740496D01*
X544657Y740474D01*
X544694Y740445D01*
X544756Y740424D01*
X544815Y740393D01*
X544869Y740385D01*
X544906Y740373D01*
X544946Y740374D01*
X545000Y740366D01*
X550000Y740366D01*
X550065Y740377D01*
G37*
G36*
X461065Y740377D02*
X461065Y740377D01*
X461131Y740379D01*
X461174Y740397D01*
X461221Y740405D01*
X461278Y740439D01*
X461338Y740464D01*
X461373Y740495D01*
X461414Y740520D01*
X461456Y740571D01*
X461504Y740615D01*
X461526Y740657D01*
X461555Y740694D01*
X461576Y740756D01*
X461607Y740815D01*
X461615Y740869D01*
X461627Y740906D01*
X461626Y740946D01*
X461634Y741000D01*
X461634Y754366D01*
X465000Y754366D01*
X465065Y754377D01*
X465131Y754379D01*
X465174Y754397D01*
X465221Y754405D01*
X465278Y754439D01*
X465338Y754464D01*
X465373Y754495D01*
X465414Y754520D01*
X465456Y754571D01*
X465504Y754615D01*
X465526Y754657D01*
X465555Y754694D01*
X465576Y754756D01*
X465607Y754815D01*
X465615Y754869D01*
X465627Y754906D01*
X465626Y754946D01*
X465634Y755000D01*
X465634Y760000D01*
X465623Y760065D01*
X465621Y760131D01*
X465603Y760174D01*
X465595Y760221D01*
X465561Y760278D01*
X465536Y760338D01*
X465505Y760373D01*
X465480Y760414D01*
X465429Y760456D01*
X465385Y760504D01*
X465343Y760526D01*
X465306Y760555D01*
X465244Y760576D01*
X465185Y760607D01*
X465131Y760615D01*
X465094Y760627D01*
X465054Y760626D01*
X465000Y760634D01*
X461634Y760634D01*
X461634Y774000D01*
X461623Y774065D01*
X461621Y774131D01*
X461603Y774174D01*
X461595Y774221D01*
X461561Y774278D01*
X461536Y774338D01*
X461505Y774373D01*
X461480Y774414D01*
X461429Y774456D01*
X461385Y774504D01*
X461343Y774526D01*
X461306Y774555D01*
X461244Y774576D01*
X461185Y774607D01*
X461131Y774615D01*
X461094Y774627D01*
X461054Y774626D01*
X461000Y774634D01*
X456000Y774634D01*
X455935Y774623D01*
X455869Y774621D01*
X455826Y774603D01*
X455779Y774595D01*
X455722Y774561D01*
X455662Y774536D01*
X455627Y774505D01*
X455586Y774480D01*
X455545Y774429D01*
X455496Y774385D01*
X455474Y774343D01*
X455445Y774306D01*
X455424Y774244D01*
X455393Y774185D01*
X455385Y774131D01*
X455373Y774094D01*
X455373Y774076D01*
X455373Y774075D01*
X455373Y774051D01*
X455366Y774000D01*
X455366Y741000D01*
X455377Y740935D01*
X455379Y740869D01*
X455397Y740826D01*
X455405Y740779D01*
X455439Y740722D01*
X455464Y740662D01*
X455495Y740627D01*
X455520Y740586D01*
X455571Y740545D01*
X455615Y740496D01*
X455657Y740474D01*
X455694Y740445D01*
X455756Y740424D01*
X455815Y740393D01*
X455869Y740385D01*
X455906Y740373D01*
X455946Y740374D01*
X456000Y740366D01*
X461000Y740366D01*
X461065Y740377D01*
G37*
G36*
X433065Y740377D02*
X433065Y740377D01*
X433131Y740379D01*
X433174Y740397D01*
X433221Y740405D01*
X433278Y740439D01*
X433338Y740464D01*
X433373Y740495D01*
X433414Y740520D01*
X433456Y740571D01*
X433504Y740615D01*
X433526Y740657D01*
X433555Y740694D01*
X433576Y740756D01*
X433607Y740815D01*
X433615Y740869D01*
X433627Y740906D01*
X433626Y740946D01*
X433634Y741000D01*
X433634Y774000D01*
X433623Y774065D01*
X433621Y774131D01*
X433603Y774174D01*
X433595Y774221D01*
X433561Y774278D01*
X433536Y774338D01*
X433505Y774373D01*
X433480Y774414D01*
X433429Y774456D01*
X433385Y774504D01*
X433343Y774526D01*
X433306Y774555D01*
X433244Y774576D01*
X433185Y774607D01*
X433131Y774615D01*
X433094Y774627D01*
X433054Y774626D01*
X433000Y774634D01*
X428000Y774634D01*
X427935Y774623D01*
X427869Y774621D01*
X427826Y774603D01*
X427779Y774595D01*
X427722Y774561D01*
X427662Y774536D01*
X427627Y774505D01*
X427586Y774480D01*
X427545Y774429D01*
X427496Y774385D01*
X427474Y774343D01*
X427445Y774306D01*
X427424Y774244D01*
X427393Y774185D01*
X427385Y774131D01*
X427373Y774094D01*
X427373Y774076D01*
X427373Y774075D01*
X427373Y774051D01*
X427366Y774000D01*
X427366Y760634D01*
X424000Y760634D01*
X423935Y760623D01*
X423869Y760621D01*
X423826Y760603D01*
X423779Y760595D01*
X423722Y760561D01*
X423662Y760536D01*
X423627Y760505D01*
X423586Y760480D01*
X423545Y760429D01*
X423496Y760385D01*
X423474Y760343D01*
X423445Y760306D01*
X423424Y760244D01*
X423393Y760185D01*
X423385Y760131D01*
X423373Y760094D01*
X423374Y760054D01*
X423366Y760000D01*
X423366Y755000D01*
X423377Y754935D01*
X423379Y754869D01*
X423397Y754826D01*
X423405Y754779D01*
X423439Y754722D01*
X423464Y754662D01*
X423495Y754627D01*
X423520Y754586D01*
X423571Y754545D01*
X423615Y754496D01*
X423657Y754474D01*
X423694Y754445D01*
X423756Y754424D01*
X423815Y754393D01*
X423869Y754385D01*
X423906Y754373D01*
X423946Y754374D01*
X424000Y754366D01*
X427366Y754366D01*
X427366Y741000D01*
X427377Y740935D01*
X427379Y740869D01*
X427397Y740826D01*
X427405Y740779D01*
X427439Y740722D01*
X427464Y740662D01*
X427495Y740627D01*
X427520Y740586D01*
X427571Y740545D01*
X427615Y740496D01*
X427657Y740474D01*
X427694Y740445D01*
X427756Y740424D01*
X427815Y740393D01*
X427869Y740385D01*
X427906Y740373D01*
X427946Y740374D01*
X428000Y740366D01*
X433000Y740366D01*
X433065Y740377D01*
G37*
G36*
X608565Y740377D02*
X608565Y740377D01*
X608631Y740379D01*
X608674Y740397D01*
X608721Y740405D01*
X608778Y740439D01*
X608838Y740464D01*
X608873Y740495D01*
X608914Y740520D01*
X608956Y740571D01*
X609004Y740615D01*
X609026Y740657D01*
X609055Y740694D01*
X609076Y740756D01*
X609107Y740815D01*
X609115Y740869D01*
X609127Y740906D01*
X609126Y740946D01*
X609134Y741000D01*
X609134Y774000D01*
X609123Y774065D01*
X609121Y774131D01*
X609103Y774174D01*
X609095Y774221D01*
X609061Y774278D01*
X609036Y774338D01*
X609005Y774373D01*
X608980Y774414D01*
X608929Y774456D01*
X608885Y774504D01*
X608843Y774526D01*
X608806Y774555D01*
X608744Y774576D01*
X608685Y774607D01*
X608631Y774615D01*
X608594Y774627D01*
X608554Y774626D01*
X608500Y774634D01*
X603500Y774634D01*
X603435Y774623D01*
X603369Y774621D01*
X603326Y774603D01*
X603279Y774595D01*
X603222Y774561D01*
X603162Y774536D01*
X603127Y774505D01*
X603086Y774480D01*
X603045Y774429D01*
X602996Y774385D01*
X602974Y774343D01*
X602945Y774306D01*
X602924Y774244D01*
X602893Y774185D01*
X602885Y774131D01*
X602873Y774094D01*
X602873Y774076D01*
X602873Y774075D01*
X602873Y774051D01*
X602866Y774000D01*
X602866Y760634D01*
X599500Y760634D01*
X599435Y760623D01*
X599369Y760621D01*
X599326Y760603D01*
X599279Y760595D01*
X599222Y760561D01*
X599162Y760536D01*
X599127Y760505D01*
X599086Y760480D01*
X599045Y760429D01*
X598996Y760385D01*
X598974Y760343D01*
X598945Y760306D01*
X598924Y760244D01*
X598893Y760185D01*
X598885Y760131D01*
X598873Y760094D01*
X598874Y760054D01*
X598866Y760000D01*
X598866Y755000D01*
X598877Y754935D01*
X598879Y754869D01*
X598897Y754826D01*
X598905Y754779D01*
X598939Y754722D01*
X598964Y754662D01*
X598995Y754627D01*
X599020Y754586D01*
X599071Y754545D01*
X599115Y754496D01*
X599157Y754474D01*
X599194Y754445D01*
X599256Y754424D01*
X599315Y754393D01*
X599369Y754385D01*
X599406Y754373D01*
X599446Y754374D01*
X599500Y754366D01*
X602866Y754366D01*
X602866Y741000D01*
X602877Y740935D01*
X602879Y740869D01*
X602897Y740826D01*
X602905Y740779D01*
X602939Y740722D01*
X602964Y740662D01*
X602995Y740627D01*
X603020Y740586D01*
X603071Y740545D01*
X603115Y740496D01*
X603157Y740474D01*
X603194Y740445D01*
X603256Y740424D01*
X603315Y740393D01*
X603369Y740385D01*
X603406Y740373D01*
X603446Y740374D01*
X603500Y740366D01*
X608500Y740366D01*
X608565Y740377D01*
G37*
G36*
X578065Y740377D02*
X578065Y740377D01*
X578131Y740379D01*
X578174Y740397D01*
X578221Y740405D01*
X578278Y740439D01*
X578338Y740464D01*
X578373Y740495D01*
X578414Y740520D01*
X578456Y740571D01*
X578504Y740615D01*
X578526Y740657D01*
X578555Y740694D01*
X578576Y740756D01*
X578607Y740815D01*
X578615Y740869D01*
X578627Y740906D01*
X578626Y740946D01*
X578634Y741000D01*
X578634Y754366D01*
X582000Y754366D01*
X582065Y754377D01*
X582131Y754379D01*
X582174Y754397D01*
X582221Y754405D01*
X582278Y754439D01*
X582338Y754464D01*
X582373Y754495D01*
X582414Y754520D01*
X582456Y754571D01*
X582504Y754615D01*
X582526Y754657D01*
X582555Y754694D01*
X582576Y754756D01*
X582607Y754815D01*
X582615Y754869D01*
X582627Y754906D01*
X582626Y754946D01*
X582634Y755000D01*
X582634Y760000D01*
X582623Y760065D01*
X582621Y760131D01*
X582603Y760174D01*
X582595Y760221D01*
X582561Y760278D01*
X582536Y760338D01*
X582505Y760373D01*
X582480Y760414D01*
X582429Y760456D01*
X582385Y760504D01*
X582343Y760526D01*
X582306Y760555D01*
X582244Y760576D01*
X582185Y760607D01*
X582131Y760615D01*
X582094Y760627D01*
X582054Y760626D01*
X582000Y760634D01*
X578634Y760634D01*
X578634Y774000D01*
X578623Y774065D01*
X578621Y774131D01*
X578603Y774174D01*
X578595Y774221D01*
X578561Y774278D01*
X578536Y774338D01*
X578505Y774373D01*
X578480Y774414D01*
X578429Y774456D01*
X578385Y774504D01*
X578343Y774526D01*
X578306Y774555D01*
X578244Y774576D01*
X578185Y774607D01*
X578131Y774615D01*
X578094Y774627D01*
X578054Y774626D01*
X578000Y774634D01*
X573000Y774634D01*
X572935Y774623D01*
X572869Y774621D01*
X572826Y774603D01*
X572779Y774595D01*
X572722Y774561D01*
X572662Y774536D01*
X572627Y774505D01*
X572586Y774480D01*
X572545Y774429D01*
X572496Y774385D01*
X572474Y774343D01*
X572445Y774306D01*
X572424Y774244D01*
X572393Y774185D01*
X572385Y774131D01*
X572373Y774094D01*
X572373Y774076D01*
X572373Y774075D01*
X572373Y774051D01*
X572366Y774000D01*
X572366Y741000D01*
X572377Y740935D01*
X572379Y740869D01*
X572397Y740826D01*
X572405Y740779D01*
X572439Y740722D01*
X572464Y740662D01*
X572495Y740627D01*
X572520Y740586D01*
X572571Y740545D01*
X572615Y740496D01*
X572657Y740474D01*
X572694Y740445D01*
X572756Y740424D01*
X572815Y740393D01*
X572869Y740385D01*
X572906Y740373D01*
X572946Y740374D01*
X573000Y740366D01*
X578000Y740366D01*
X578065Y740377D01*
G37*
G36*
X402565Y740377D02*
X402565Y740377D01*
X402631Y740379D01*
X402674Y740397D01*
X402721Y740405D01*
X402778Y740439D01*
X402838Y740464D01*
X402873Y740495D01*
X402914Y740520D01*
X402956Y740571D01*
X403004Y740615D01*
X403026Y740657D01*
X403055Y740694D01*
X403076Y740756D01*
X403107Y740815D01*
X403115Y740869D01*
X403127Y740906D01*
X403126Y740946D01*
X403134Y741000D01*
X403134Y754366D01*
X406500Y754366D01*
X406565Y754377D01*
X406631Y754379D01*
X406674Y754397D01*
X406721Y754405D01*
X406778Y754439D01*
X406838Y754464D01*
X406873Y754495D01*
X406914Y754520D01*
X406956Y754571D01*
X407004Y754615D01*
X407026Y754657D01*
X407055Y754694D01*
X407076Y754756D01*
X407107Y754815D01*
X407115Y754869D01*
X407127Y754906D01*
X407126Y754946D01*
X407134Y755000D01*
X407134Y760000D01*
X407123Y760065D01*
X407121Y760131D01*
X407103Y760174D01*
X407095Y760221D01*
X407061Y760278D01*
X407036Y760338D01*
X407005Y760373D01*
X406980Y760414D01*
X406929Y760456D01*
X406885Y760504D01*
X406843Y760526D01*
X406806Y760555D01*
X406744Y760576D01*
X406685Y760607D01*
X406631Y760615D01*
X406594Y760627D01*
X406554Y760626D01*
X406500Y760634D01*
X403134Y760634D01*
X403134Y774000D01*
X403123Y774065D01*
X403121Y774131D01*
X403103Y774174D01*
X403095Y774221D01*
X403061Y774278D01*
X403036Y774338D01*
X403005Y774373D01*
X402980Y774414D01*
X402929Y774456D01*
X402885Y774504D01*
X402843Y774526D01*
X402806Y774555D01*
X402744Y774576D01*
X402685Y774607D01*
X402631Y774615D01*
X402594Y774627D01*
X402554Y774626D01*
X402500Y774634D01*
X397500Y774634D01*
X397435Y774623D01*
X397369Y774621D01*
X397326Y774603D01*
X397279Y774595D01*
X397222Y774561D01*
X397162Y774536D01*
X397127Y774505D01*
X397086Y774480D01*
X397045Y774429D01*
X396996Y774385D01*
X396974Y774343D01*
X396945Y774306D01*
X396924Y774244D01*
X396893Y774185D01*
X396885Y774131D01*
X396873Y774094D01*
X396873Y774076D01*
X396873Y774075D01*
X396873Y774051D01*
X396866Y774000D01*
X396866Y741000D01*
X396877Y740935D01*
X396879Y740869D01*
X396897Y740826D01*
X396905Y740779D01*
X396939Y740722D01*
X396964Y740662D01*
X396995Y740627D01*
X397020Y740586D01*
X397071Y740545D01*
X397115Y740496D01*
X397157Y740474D01*
X397194Y740445D01*
X397256Y740424D01*
X397315Y740393D01*
X397369Y740385D01*
X397406Y740373D01*
X397446Y740374D01*
X397500Y740366D01*
X402500Y740366D01*
X402565Y740377D01*
G37*
G36*
X695065Y740377D02*
X695065Y740377D01*
X695131Y740379D01*
X695174Y740397D01*
X695221Y740405D01*
X695278Y740439D01*
X695338Y740464D01*
X695373Y740495D01*
X695414Y740520D01*
X695456Y740571D01*
X695504Y740615D01*
X695526Y740657D01*
X695555Y740694D01*
X695576Y740756D01*
X695607Y740815D01*
X695615Y740869D01*
X695627Y740906D01*
X695626Y740946D01*
X695634Y741000D01*
X695634Y754366D01*
X699000Y754366D01*
X699065Y754377D01*
X699131Y754379D01*
X699174Y754397D01*
X699221Y754405D01*
X699278Y754439D01*
X699338Y754464D01*
X699373Y754495D01*
X699414Y754520D01*
X699456Y754571D01*
X699504Y754615D01*
X699526Y754657D01*
X699555Y754694D01*
X699576Y754756D01*
X699607Y754815D01*
X699615Y754869D01*
X699627Y754906D01*
X699626Y754946D01*
X699634Y755000D01*
X699634Y760000D01*
X699623Y760065D01*
X699621Y760131D01*
X699603Y760174D01*
X699595Y760221D01*
X699561Y760278D01*
X699536Y760338D01*
X699505Y760373D01*
X699480Y760414D01*
X699429Y760456D01*
X699385Y760504D01*
X699343Y760526D01*
X699306Y760555D01*
X699244Y760576D01*
X699185Y760607D01*
X699131Y760615D01*
X699094Y760627D01*
X699054Y760626D01*
X699000Y760634D01*
X695634Y760634D01*
X695634Y774000D01*
X695623Y774065D01*
X695621Y774131D01*
X695603Y774174D01*
X695595Y774221D01*
X695561Y774278D01*
X695536Y774338D01*
X695505Y774373D01*
X695480Y774414D01*
X695429Y774456D01*
X695385Y774504D01*
X695343Y774526D01*
X695306Y774555D01*
X695244Y774576D01*
X695185Y774607D01*
X695131Y774615D01*
X695094Y774627D01*
X695054Y774626D01*
X695000Y774634D01*
X690000Y774634D01*
X689935Y774623D01*
X689869Y774621D01*
X689826Y774603D01*
X689779Y774595D01*
X689722Y774561D01*
X689662Y774536D01*
X689627Y774505D01*
X689586Y774480D01*
X689545Y774429D01*
X689496Y774385D01*
X689474Y774343D01*
X689445Y774306D01*
X689424Y774244D01*
X689393Y774185D01*
X689385Y774131D01*
X689373Y774094D01*
X689373Y774076D01*
X689373Y774075D01*
X689373Y774051D01*
X689366Y774000D01*
X689366Y741000D01*
X689377Y740935D01*
X689379Y740869D01*
X689397Y740826D01*
X689405Y740779D01*
X689439Y740722D01*
X689464Y740662D01*
X689495Y740627D01*
X689520Y740586D01*
X689571Y740545D01*
X689615Y740496D01*
X689657Y740474D01*
X689694Y740445D01*
X689756Y740424D01*
X689815Y740393D01*
X689869Y740385D01*
X689906Y740373D01*
X689946Y740374D01*
X690000Y740366D01*
X695000Y740366D01*
X695065Y740377D01*
G37*
G36*
X578065Y667077D02*
X578065Y667077D01*
X578131Y667079D01*
X578174Y667097D01*
X578221Y667105D01*
X578278Y667139D01*
X578338Y667164D01*
X578373Y667195D01*
X578414Y667220D01*
X578456Y667271D01*
X578504Y667315D01*
X578526Y667357D01*
X578555Y667394D01*
X578576Y667456D01*
X578607Y667515D01*
X578615Y667569D01*
X578627Y667606D01*
X578626Y667646D01*
X578634Y667700D01*
X578634Y681066D01*
X582000Y681066D01*
X582065Y681077D01*
X582131Y681079D01*
X582174Y681097D01*
X582221Y681105D01*
X582278Y681139D01*
X582338Y681164D01*
X582373Y681195D01*
X582414Y681220D01*
X582456Y681271D01*
X582504Y681315D01*
X582526Y681357D01*
X582555Y681394D01*
X582576Y681456D01*
X582607Y681515D01*
X582615Y681569D01*
X582627Y681606D01*
X582626Y681646D01*
X582634Y681700D01*
X582634Y686700D01*
X582623Y686765D01*
X582621Y686831D01*
X582603Y686874D01*
X582595Y686921D01*
X582561Y686978D01*
X582536Y687038D01*
X582505Y687073D01*
X582480Y687114D01*
X582429Y687156D01*
X582385Y687204D01*
X582343Y687226D01*
X582306Y687255D01*
X582244Y687276D01*
X582185Y687307D01*
X582131Y687315D01*
X582094Y687327D01*
X582054Y687326D01*
X582000Y687334D01*
X578634Y687334D01*
X578634Y700700D01*
X578623Y700765D01*
X578621Y700831D01*
X578603Y700874D01*
X578595Y700921D01*
X578561Y700978D01*
X578536Y701038D01*
X578505Y701073D01*
X578480Y701114D01*
X578429Y701156D01*
X578385Y701204D01*
X578343Y701226D01*
X578306Y701255D01*
X578244Y701276D01*
X578185Y701307D01*
X578131Y701315D01*
X578094Y701327D01*
X578054Y701326D01*
X578000Y701334D01*
X573000Y701334D01*
X572935Y701323D01*
X572869Y701321D01*
X572826Y701303D01*
X572779Y701295D01*
X572722Y701261D01*
X572662Y701236D01*
X572627Y701205D01*
X572586Y701180D01*
X572545Y701129D01*
X572496Y701085D01*
X572474Y701043D01*
X572445Y701006D01*
X572424Y700944D01*
X572393Y700885D01*
X572385Y700831D01*
X572373Y700794D01*
X572373Y700776D01*
X572373Y700775D01*
X572373Y700751D01*
X572366Y700700D01*
X572366Y667700D01*
X572377Y667635D01*
X572379Y667569D01*
X572397Y667526D01*
X572405Y667479D01*
X572439Y667422D01*
X572464Y667362D01*
X572495Y667327D01*
X572520Y667286D01*
X572571Y667245D01*
X572615Y667196D01*
X572657Y667174D01*
X572694Y667145D01*
X572756Y667124D01*
X572815Y667093D01*
X572869Y667085D01*
X572906Y667073D01*
X572946Y667074D01*
X573000Y667066D01*
X578000Y667066D01*
X578065Y667077D01*
G37*
G36*
X433065Y667077D02*
X433065Y667077D01*
X433131Y667079D01*
X433174Y667097D01*
X433221Y667105D01*
X433278Y667139D01*
X433338Y667164D01*
X433373Y667195D01*
X433414Y667220D01*
X433456Y667271D01*
X433504Y667315D01*
X433526Y667357D01*
X433555Y667394D01*
X433576Y667456D01*
X433607Y667515D01*
X433615Y667569D01*
X433627Y667606D01*
X433626Y667646D01*
X433634Y667700D01*
X433634Y700700D01*
X433623Y700765D01*
X433621Y700831D01*
X433603Y700874D01*
X433595Y700921D01*
X433561Y700978D01*
X433536Y701038D01*
X433505Y701073D01*
X433480Y701114D01*
X433429Y701156D01*
X433385Y701204D01*
X433343Y701226D01*
X433306Y701255D01*
X433244Y701276D01*
X433185Y701307D01*
X433131Y701315D01*
X433094Y701327D01*
X433054Y701326D01*
X433000Y701334D01*
X428000Y701334D01*
X427935Y701323D01*
X427869Y701321D01*
X427826Y701303D01*
X427779Y701295D01*
X427722Y701261D01*
X427662Y701236D01*
X427627Y701205D01*
X427586Y701180D01*
X427545Y701129D01*
X427496Y701085D01*
X427474Y701043D01*
X427445Y701006D01*
X427424Y700944D01*
X427393Y700885D01*
X427385Y700831D01*
X427373Y700794D01*
X427373Y700776D01*
X427373Y700775D01*
X427373Y700751D01*
X427366Y700700D01*
X427366Y687334D01*
X424000Y687334D01*
X423935Y687323D01*
X423869Y687321D01*
X423826Y687303D01*
X423779Y687295D01*
X423722Y687261D01*
X423662Y687236D01*
X423627Y687205D01*
X423586Y687180D01*
X423545Y687129D01*
X423496Y687085D01*
X423474Y687043D01*
X423445Y687006D01*
X423424Y686944D01*
X423393Y686885D01*
X423385Y686831D01*
X423373Y686794D01*
X423374Y686754D01*
X423366Y686700D01*
X423366Y681700D01*
X423377Y681635D01*
X423379Y681569D01*
X423397Y681526D01*
X423405Y681479D01*
X423439Y681422D01*
X423464Y681362D01*
X423495Y681327D01*
X423520Y681286D01*
X423571Y681245D01*
X423615Y681196D01*
X423657Y681174D01*
X423694Y681145D01*
X423756Y681124D01*
X423815Y681093D01*
X423869Y681085D01*
X423906Y681073D01*
X423946Y681074D01*
X424000Y681066D01*
X427366Y681066D01*
X427366Y667700D01*
X427377Y667635D01*
X427379Y667569D01*
X427397Y667526D01*
X427405Y667479D01*
X427439Y667422D01*
X427464Y667362D01*
X427495Y667327D01*
X427520Y667286D01*
X427571Y667245D01*
X427615Y667196D01*
X427657Y667174D01*
X427694Y667145D01*
X427756Y667124D01*
X427815Y667093D01*
X427869Y667085D01*
X427906Y667073D01*
X427946Y667074D01*
X428000Y667066D01*
X433000Y667066D01*
X433065Y667077D01*
G37*
G36*
X519565Y667077D02*
X519565Y667077D01*
X519631Y667079D01*
X519674Y667097D01*
X519721Y667105D01*
X519778Y667139D01*
X519838Y667164D01*
X519873Y667195D01*
X519914Y667220D01*
X519956Y667271D01*
X520004Y667315D01*
X520026Y667357D01*
X520055Y667394D01*
X520076Y667456D01*
X520107Y667515D01*
X520115Y667569D01*
X520127Y667606D01*
X520126Y667646D01*
X520134Y667700D01*
X520134Y681066D01*
X523500Y681066D01*
X523565Y681077D01*
X523631Y681079D01*
X523674Y681097D01*
X523721Y681105D01*
X523778Y681139D01*
X523838Y681164D01*
X523873Y681195D01*
X523914Y681220D01*
X523956Y681271D01*
X524004Y681315D01*
X524026Y681357D01*
X524055Y681394D01*
X524076Y681456D01*
X524107Y681515D01*
X524115Y681569D01*
X524127Y681606D01*
X524126Y681646D01*
X524134Y681700D01*
X524134Y686700D01*
X524123Y686765D01*
X524121Y686831D01*
X524103Y686874D01*
X524095Y686921D01*
X524061Y686978D01*
X524036Y687038D01*
X524005Y687073D01*
X523980Y687114D01*
X523929Y687156D01*
X523885Y687204D01*
X523843Y687226D01*
X523806Y687255D01*
X523744Y687276D01*
X523685Y687307D01*
X523631Y687315D01*
X523594Y687327D01*
X523554Y687326D01*
X523500Y687334D01*
X520134Y687334D01*
X520134Y700700D01*
X520123Y700765D01*
X520121Y700831D01*
X520103Y700874D01*
X520095Y700921D01*
X520061Y700978D01*
X520036Y701038D01*
X520005Y701073D01*
X519980Y701114D01*
X519929Y701156D01*
X519885Y701204D01*
X519843Y701226D01*
X519806Y701255D01*
X519744Y701276D01*
X519685Y701307D01*
X519631Y701315D01*
X519594Y701327D01*
X519554Y701326D01*
X519500Y701334D01*
X514500Y701334D01*
X514435Y701323D01*
X514369Y701321D01*
X514326Y701303D01*
X514279Y701295D01*
X514222Y701261D01*
X514162Y701236D01*
X514127Y701205D01*
X514086Y701180D01*
X514045Y701129D01*
X513996Y701085D01*
X513974Y701043D01*
X513945Y701006D01*
X513924Y700944D01*
X513893Y700885D01*
X513885Y700831D01*
X513873Y700794D01*
X513873Y700776D01*
X513873Y700775D01*
X513873Y700751D01*
X513866Y700700D01*
X513866Y667700D01*
X513877Y667635D01*
X513879Y667569D01*
X513897Y667526D01*
X513905Y667479D01*
X513939Y667422D01*
X513964Y667362D01*
X513995Y667327D01*
X514020Y667286D01*
X514071Y667245D01*
X514115Y667196D01*
X514157Y667174D01*
X514194Y667145D01*
X514256Y667124D01*
X514315Y667093D01*
X514369Y667085D01*
X514406Y667073D01*
X514446Y667074D01*
X514500Y667066D01*
X519500Y667066D01*
X519565Y667077D01*
G37*
G36*
X491565Y667077D02*
X491565Y667077D01*
X491631Y667079D01*
X491674Y667097D01*
X491721Y667105D01*
X491778Y667139D01*
X491838Y667164D01*
X491873Y667195D01*
X491914Y667220D01*
X491956Y667271D01*
X492004Y667315D01*
X492026Y667357D01*
X492055Y667394D01*
X492076Y667456D01*
X492107Y667515D01*
X492115Y667569D01*
X492127Y667606D01*
X492126Y667646D01*
X492134Y667700D01*
X492134Y700700D01*
X492123Y700765D01*
X492121Y700831D01*
X492103Y700874D01*
X492095Y700921D01*
X492061Y700978D01*
X492036Y701038D01*
X492005Y701073D01*
X491980Y701114D01*
X491929Y701156D01*
X491885Y701204D01*
X491843Y701226D01*
X491806Y701255D01*
X491744Y701276D01*
X491685Y701307D01*
X491631Y701315D01*
X491594Y701327D01*
X491554Y701326D01*
X491500Y701334D01*
X486500Y701334D01*
X486435Y701323D01*
X486369Y701321D01*
X486326Y701303D01*
X486279Y701295D01*
X486222Y701261D01*
X486162Y701236D01*
X486127Y701205D01*
X486086Y701180D01*
X486045Y701129D01*
X485996Y701085D01*
X485974Y701043D01*
X485945Y701006D01*
X485924Y700944D01*
X485893Y700885D01*
X485885Y700831D01*
X485873Y700794D01*
X485873Y700776D01*
X485873Y700775D01*
X485873Y700751D01*
X485866Y700700D01*
X485866Y687334D01*
X482500Y687334D01*
X482435Y687323D01*
X482369Y687321D01*
X482326Y687303D01*
X482279Y687295D01*
X482222Y687261D01*
X482162Y687236D01*
X482127Y687205D01*
X482086Y687180D01*
X482045Y687129D01*
X481996Y687085D01*
X481974Y687043D01*
X481945Y687006D01*
X481924Y686944D01*
X481893Y686885D01*
X481885Y686831D01*
X481873Y686794D01*
X481874Y686754D01*
X481866Y686700D01*
X481866Y681700D01*
X481877Y681635D01*
X481879Y681569D01*
X481897Y681526D01*
X481905Y681479D01*
X481939Y681422D01*
X481964Y681362D01*
X481995Y681327D01*
X482020Y681286D01*
X482071Y681245D01*
X482115Y681196D01*
X482157Y681174D01*
X482194Y681145D01*
X482256Y681124D01*
X482315Y681093D01*
X482369Y681085D01*
X482406Y681073D01*
X482446Y681074D01*
X482500Y681066D01*
X485866Y681066D01*
X485866Y667700D01*
X485877Y667635D01*
X485879Y667569D01*
X485897Y667526D01*
X485905Y667479D01*
X485939Y667422D01*
X485964Y667362D01*
X485995Y667327D01*
X486020Y667286D01*
X486071Y667245D01*
X486115Y667196D01*
X486157Y667174D01*
X486194Y667145D01*
X486256Y667124D01*
X486315Y667093D01*
X486369Y667085D01*
X486406Y667073D01*
X486446Y667074D01*
X486500Y667066D01*
X491500Y667066D01*
X491565Y667077D01*
G37*
G36*
X374565Y667077D02*
X374565Y667077D01*
X374631Y667079D01*
X374674Y667097D01*
X374721Y667105D01*
X374778Y667139D01*
X374838Y667164D01*
X374873Y667195D01*
X374914Y667220D01*
X374956Y667271D01*
X375004Y667315D01*
X375026Y667357D01*
X375055Y667394D01*
X375076Y667456D01*
X375107Y667515D01*
X375115Y667569D01*
X375127Y667606D01*
X375126Y667646D01*
X375134Y667700D01*
X375134Y700700D01*
X375123Y700765D01*
X375121Y700831D01*
X375103Y700874D01*
X375095Y700921D01*
X375061Y700978D01*
X375036Y701038D01*
X375005Y701073D01*
X374980Y701114D01*
X374929Y701156D01*
X374885Y701204D01*
X374843Y701226D01*
X374806Y701255D01*
X374744Y701276D01*
X374685Y701307D01*
X374631Y701315D01*
X374594Y701327D01*
X374554Y701326D01*
X374500Y701334D01*
X369500Y701334D01*
X369435Y701323D01*
X369369Y701321D01*
X369326Y701303D01*
X369279Y701295D01*
X369222Y701261D01*
X369162Y701236D01*
X369127Y701205D01*
X369086Y701180D01*
X369045Y701129D01*
X368996Y701085D01*
X368974Y701043D01*
X368945Y701006D01*
X368924Y700944D01*
X368893Y700885D01*
X368885Y700831D01*
X368873Y700794D01*
X368873Y700776D01*
X368873Y700775D01*
X368873Y700751D01*
X368866Y700700D01*
X368866Y687334D01*
X365500Y687334D01*
X365435Y687323D01*
X365369Y687321D01*
X365326Y687303D01*
X365279Y687295D01*
X365222Y687261D01*
X365162Y687236D01*
X365127Y687205D01*
X365086Y687180D01*
X365045Y687129D01*
X364996Y687085D01*
X364974Y687043D01*
X364945Y687006D01*
X364924Y686944D01*
X364893Y686885D01*
X364885Y686831D01*
X364873Y686794D01*
X364874Y686754D01*
X364866Y686700D01*
X364866Y681700D01*
X364877Y681635D01*
X364879Y681569D01*
X364897Y681526D01*
X364905Y681479D01*
X364939Y681422D01*
X364964Y681362D01*
X364995Y681327D01*
X365020Y681286D01*
X365071Y681245D01*
X365115Y681196D01*
X365157Y681174D01*
X365194Y681145D01*
X365256Y681124D01*
X365315Y681093D01*
X365369Y681085D01*
X365406Y681073D01*
X365446Y681074D01*
X365500Y681066D01*
X368866Y681066D01*
X368866Y667700D01*
X368877Y667635D01*
X368879Y667569D01*
X368897Y667526D01*
X368905Y667479D01*
X368939Y667422D01*
X368964Y667362D01*
X368995Y667327D01*
X369020Y667286D01*
X369071Y667245D01*
X369115Y667196D01*
X369157Y667174D01*
X369194Y667145D01*
X369256Y667124D01*
X369315Y667093D01*
X369369Y667085D01*
X369406Y667073D01*
X369446Y667074D01*
X369500Y667066D01*
X374500Y667066D01*
X374565Y667077D01*
G37*
G36*
X695065Y667077D02*
X695065Y667077D01*
X695131Y667079D01*
X695174Y667097D01*
X695221Y667105D01*
X695278Y667139D01*
X695338Y667164D01*
X695373Y667195D01*
X695414Y667220D01*
X695456Y667271D01*
X695504Y667315D01*
X695526Y667357D01*
X695555Y667394D01*
X695576Y667456D01*
X695607Y667515D01*
X695615Y667569D01*
X695627Y667606D01*
X695626Y667646D01*
X695634Y667700D01*
X695634Y681066D01*
X699000Y681066D01*
X699065Y681077D01*
X699131Y681079D01*
X699174Y681097D01*
X699221Y681105D01*
X699278Y681139D01*
X699338Y681164D01*
X699373Y681195D01*
X699414Y681220D01*
X699456Y681271D01*
X699504Y681315D01*
X699526Y681357D01*
X699555Y681394D01*
X699576Y681456D01*
X699607Y681515D01*
X699615Y681569D01*
X699627Y681606D01*
X699626Y681646D01*
X699634Y681700D01*
X699634Y686700D01*
X699623Y686765D01*
X699621Y686831D01*
X699603Y686874D01*
X699595Y686921D01*
X699561Y686978D01*
X699536Y687038D01*
X699505Y687073D01*
X699480Y687114D01*
X699429Y687156D01*
X699385Y687204D01*
X699343Y687226D01*
X699306Y687255D01*
X699244Y687276D01*
X699185Y687307D01*
X699131Y687315D01*
X699094Y687327D01*
X699054Y687326D01*
X699000Y687334D01*
X695634Y687334D01*
X695634Y700700D01*
X695623Y700765D01*
X695621Y700831D01*
X695603Y700874D01*
X695595Y700921D01*
X695561Y700978D01*
X695536Y701038D01*
X695505Y701073D01*
X695480Y701114D01*
X695429Y701156D01*
X695385Y701204D01*
X695343Y701226D01*
X695306Y701255D01*
X695244Y701276D01*
X695185Y701307D01*
X695131Y701315D01*
X695094Y701327D01*
X695054Y701326D01*
X695000Y701334D01*
X690000Y701334D01*
X689935Y701323D01*
X689869Y701321D01*
X689826Y701303D01*
X689779Y701295D01*
X689722Y701261D01*
X689662Y701236D01*
X689627Y701205D01*
X689586Y701180D01*
X689545Y701129D01*
X689496Y701085D01*
X689474Y701043D01*
X689445Y701006D01*
X689424Y700944D01*
X689393Y700885D01*
X689385Y700831D01*
X689373Y700794D01*
X689373Y700776D01*
X689373Y700775D01*
X689373Y700751D01*
X689366Y700700D01*
X689366Y667700D01*
X689377Y667635D01*
X689379Y667569D01*
X689397Y667526D01*
X689405Y667479D01*
X689439Y667422D01*
X689464Y667362D01*
X689495Y667327D01*
X689520Y667286D01*
X689571Y667245D01*
X689615Y667196D01*
X689657Y667174D01*
X689694Y667145D01*
X689756Y667124D01*
X689815Y667093D01*
X689869Y667085D01*
X689906Y667073D01*
X689946Y667074D01*
X690000Y667066D01*
X695000Y667066D01*
X695065Y667077D01*
G37*
G36*
X461065Y667077D02*
X461065Y667077D01*
X461131Y667079D01*
X461174Y667097D01*
X461221Y667105D01*
X461278Y667139D01*
X461338Y667164D01*
X461373Y667195D01*
X461414Y667220D01*
X461456Y667271D01*
X461504Y667315D01*
X461526Y667357D01*
X461555Y667394D01*
X461576Y667456D01*
X461607Y667515D01*
X461615Y667569D01*
X461627Y667606D01*
X461626Y667646D01*
X461634Y667700D01*
X461634Y681066D01*
X465000Y681066D01*
X465065Y681077D01*
X465131Y681079D01*
X465174Y681097D01*
X465221Y681105D01*
X465278Y681139D01*
X465338Y681164D01*
X465373Y681195D01*
X465414Y681220D01*
X465456Y681271D01*
X465504Y681315D01*
X465526Y681357D01*
X465555Y681394D01*
X465576Y681456D01*
X465607Y681515D01*
X465615Y681569D01*
X465627Y681606D01*
X465626Y681646D01*
X465634Y681700D01*
X465634Y686700D01*
X465623Y686765D01*
X465621Y686831D01*
X465603Y686874D01*
X465595Y686921D01*
X465561Y686978D01*
X465536Y687038D01*
X465505Y687073D01*
X465480Y687114D01*
X465429Y687156D01*
X465385Y687204D01*
X465343Y687226D01*
X465306Y687255D01*
X465244Y687276D01*
X465185Y687307D01*
X465131Y687315D01*
X465094Y687327D01*
X465054Y687326D01*
X465000Y687334D01*
X461634Y687334D01*
X461634Y700700D01*
X461623Y700765D01*
X461621Y700831D01*
X461603Y700874D01*
X461595Y700921D01*
X461561Y700978D01*
X461536Y701038D01*
X461505Y701073D01*
X461480Y701114D01*
X461429Y701156D01*
X461385Y701204D01*
X461343Y701226D01*
X461306Y701255D01*
X461244Y701276D01*
X461185Y701307D01*
X461131Y701315D01*
X461094Y701327D01*
X461054Y701326D01*
X461000Y701334D01*
X456000Y701334D01*
X455935Y701323D01*
X455869Y701321D01*
X455826Y701303D01*
X455779Y701295D01*
X455722Y701261D01*
X455662Y701236D01*
X455627Y701205D01*
X455586Y701180D01*
X455545Y701129D01*
X455496Y701085D01*
X455474Y701043D01*
X455445Y701006D01*
X455424Y700944D01*
X455393Y700885D01*
X455385Y700831D01*
X455373Y700794D01*
X455373Y700776D01*
X455373Y700775D01*
X455373Y700751D01*
X455366Y700700D01*
X455366Y667700D01*
X455377Y667635D01*
X455379Y667569D01*
X455397Y667526D01*
X455405Y667479D01*
X455439Y667422D01*
X455464Y667362D01*
X455495Y667327D01*
X455520Y667286D01*
X455571Y667245D01*
X455615Y667196D01*
X455657Y667174D01*
X455694Y667145D01*
X455756Y667124D01*
X455815Y667093D01*
X455869Y667085D01*
X455906Y667073D01*
X455946Y667074D01*
X456000Y667066D01*
X461000Y667066D01*
X461065Y667077D01*
G37*
G36*
X550065Y667077D02*
X550065Y667077D01*
X550131Y667079D01*
X550174Y667097D01*
X550221Y667105D01*
X550278Y667139D01*
X550338Y667164D01*
X550373Y667195D01*
X550414Y667220D01*
X550456Y667271D01*
X550504Y667315D01*
X550526Y667357D01*
X550555Y667394D01*
X550576Y667456D01*
X550607Y667515D01*
X550615Y667569D01*
X550627Y667606D01*
X550626Y667646D01*
X550634Y667700D01*
X550634Y700700D01*
X550623Y700765D01*
X550621Y700831D01*
X550603Y700874D01*
X550595Y700921D01*
X550561Y700978D01*
X550536Y701038D01*
X550505Y701073D01*
X550480Y701114D01*
X550429Y701156D01*
X550385Y701204D01*
X550343Y701226D01*
X550306Y701255D01*
X550244Y701276D01*
X550185Y701307D01*
X550131Y701315D01*
X550094Y701327D01*
X550054Y701326D01*
X550000Y701334D01*
X545000Y701334D01*
X544935Y701323D01*
X544869Y701321D01*
X544826Y701303D01*
X544779Y701295D01*
X544722Y701261D01*
X544662Y701236D01*
X544627Y701205D01*
X544586Y701180D01*
X544545Y701129D01*
X544496Y701085D01*
X544474Y701043D01*
X544445Y701006D01*
X544424Y700944D01*
X544393Y700885D01*
X544385Y700831D01*
X544373Y700794D01*
X544373Y700776D01*
X544373Y700775D01*
X544373Y700751D01*
X544366Y700700D01*
X544366Y687334D01*
X541000Y687334D01*
X540935Y687323D01*
X540869Y687321D01*
X540826Y687303D01*
X540779Y687295D01*
X540722Y687261D01*
X540662Y687236D01*
X540627Y687205D01*
X540586Y687180D01*
X540545Y687129D01*
X540496Y687085D01*
X540474Y687043D01*
X540445Y687006D01*
X540424Y686944D01*
X540393Y686885D01*
X540385Y686831D01*
X540373Y686794D01*
X540374Y686754D01*
X540366Y686700D01*
X540366Y681700D01*
X540377Y681635D01*
X540379Y681569D01*
X540397Y681526D01*
X540405Y681479D01*
X540439Y681422D01*
X540464Y681362D01*
X540495Y681327D01*
X540520Y681286D01*
X540571Y681245D01*
X540615Y681196D01*
X540657Y681174D01*
X540694Y681145D01*
X540756Y681124D01*
X540815Y681093D01*
X540869Y681085D01*
X540906Y681073D01*
X540946Y681074D01*
X541000Y681066D01*
X544366Y681066D01*
X544366Y667700D01*
X544377Y667635D01*
X544379Y667569D01*
X544397Y667526D01*
X544405Y667479D01*
X544439Y667422D01*
X544464Y667362D01*
X544495Y667327D01*
X544520Y667286D01*
X544571Y667245D01*
X544615Y667196D01*
X544657Y667174D01*
X544694Y667145D01*
X544756Y667124D01*
X544815Y667093D01*
X544869Y667085D01*
X544906Y667073D01*
X544946Y667074D01*
X545000Y667066D01*
X550000Y667066D01*
X550065Y667077D01*
G37*
G36*
X402565Y667077D02*
X402565Y667077D01*
X402631Y667079D01*
X402674Y667097D01*
X402721Y667105D01*
X402778Y667139D01*
X402838Y667164D01*
X402873Y667195D01*
X402914Y667220D01*
X402956Y667271D01*
X403004Y667315D01*
X403026Y667357D01*
X403055Y667394D01*
X403076Y667456D01*
X403107Y667515D01*
X403115Y667569D01*
X403127Y667606D01*
X403126Y667646D01*
X403134Y667700D01*
X403134Y681066D01*
X406500Y681066D01*
X406565Y681077D01*
X406631Y681079D01*
X406674Y681097D01*
X406721Y681105D01*
X406778Y681139D01*
X406838Y681164D01*
X406873Y681195D01*
X406914Y681220D01*
X406956Y681271D01*
X407004Y681315D01*
X407026Y681357D01*
X407055Y681394D01*
X407076Y681456D01*
X407107Y681515D01*
X407115Y681569D01*
X407127Y681606D01*
X407126Y681646D01*
X407134Y681700D01*
X407134Y686700D01*
X407123Y686765D01*
X407121Y686831D01*
X407103Y686874D01*
X407095Y686921D01*
X407061Y686978D01*
X407036Y687038D01*
X407005Y687073D01*
X406980Y687114D01*
X406929Y687156D01*
X406885Y687204D01*
X406843Y687226D01*
X406806Y687255D01*
X406744Y687276D01*
X406685Y687307D01*
X406631Y687315D01*
X406594Y687327D01*
X406554Y687326D01*
X406500Y687334D01*
X403134Y687334D01*
X403134Y700700D01*
X403123Y700765D01*
X403121Y700831D01*
X403103Y700874D01*
X403095Y700921D01*
X403061Y700978D01*
X403036Y701038D01*
X403005Y701073D01*
X402980Y701114D01*
X402929Y701156D01*
X402885Y701204D01*
X402843Y701226D01*
X402806Y701255D01*
X402744Y701276D01*
X402685Y701307D01*
X402631Y701315D01*
X402594Y701327D01*
X402554Y701326D01*
X402500Y701334D01*
X397500Y701334D01*
X397435Y701323D01*
X397369Y701321D01*
X397326Y701303D01*
X397279Y701295D01*
X397222Y701261D01*
X397162Y701236D01*
X397127Y701205D01*
X397086Y701180D01*
X397045Y701129D01*
X396996Y701085D01*
X396974Y701043D01*
X396945Y701006D01*
X396924Y700944D01*
X396893Y700885D01*
X396885Y700831D01*
X396873Y700794D01*
X396873Y700776D01*
X396873Y700775D01*
X396873Y700751D01*
X396866Y700700D01*
X396866Y667700D01*
X396877Y667635D01*
X396879Y667569D01*
X396897Y667526D01*
X396905Y667479D01*
X396939Y667422D01*
X396964Y667362D01*
X396995Y667327D01*
X397020Y667286D01*
X397071Y667245D01*
X397115Y667196D01*
X397157Y667174D01*
X397194Y667145D01*
X397256Y667124D01*
X397315Y667093D01*
X397369Y667085D01*
X397406Y667073D01*
X397446Y667074D01*
X397500Y667066D01*
X402500Y667066D01*
X402565Y667077D01*
G37*
G36*
X636565Y667077D02*
X636565Y667077D01*
X636631Y667079D01*
X636674Y667097D01*
X636721Y667105D01*
X636778Y667139D01*
X636838Y667164D01*
X636873Y667195D01*
X636914Y667220D01*
X636956Y667271D01*
X637004Y667315D01*
X637026Y667357D01*
X637055Y667394D01*
X637076Y667456D01*
X637107Y667515D01*
X637115Y667569D01*
X637127Y667606D01*
X637126Y667646D01*
X637134Y667700D01*
X637134Y681066D01*
X640500Y681066D01*
X640565Y681077D01*
X640631Y681079D01*
X640674Y681097D01*
X640721Y681105D01*
X640778Y681139D01*
X640838Y681164D01*
X640873Y681195D01*
X640914Y681220D01*
X640956Y681271D01*
X641004Y681315D01*
X641026Y681357D01*
X641055Y681394D01*
X641076Y681456D01*
X641107Y681515D01*
X641115Y681569D01*
X641127Y681606D01*
X641126Y681646D01*
X641134Y681700D01*
X641134Y686700D01*
X641123Y686765D01*
X641121Y686831D01*
X641103Y686874D01*
X641095Y686921D01*
X641061Y686978D01*
X641036Y687038D01*
X641005Y687073D01*
X640980Y687114D01*
X640929Y687156D01*
X640885Y687204D01*
X640843Y687226D01*
X640806Y687255D01*
X640744Y687276D01*
X640685Y687307D01*
X640631Y687315D01*
X640594Y687327D01*
X640554Y687326D01*
X640500Y687334D01*
X637134Y687334D01*
X637134Y700700D01*
X637123Y700765D01*
X637121Y700831D01*
X637103Y700874D01*
X637095Y700921D01*
X637061Y700978D01*
X637036Y701038D01*
X637005Y701073D01*
X636980Y701114D01*
X636929Y701156D01*
X636885Y701204D01*
X636843Y701226D01*
X636806Y701255D01*
X636744Y701276D01*
X636685Y701307D01*
X636631Y701315D01*
X636594Y701327D01*
X636554Y701326D01*
X636500Y701334D01*
X631500Y701334D01*
X631435Y701323D01*
X631369Y701321D01*
X631326Y701303D01*
X631279Y701295D01*
X631222Y701261D01*
X631162Y701236D01*
X631127Y701205D01*
X631086Y701180D01*
X631045Y701129D01*
X630996Y701085D01*
X630974Y701043D01*
X630945Y701006D01*
X630924Y700944D01*
X630893Y700885D01*
X630885Y700831D01*
X630873Y700794D01*
X630873Y700776D01*
X630873Y700775D01*
X630873Y700751D01*
X630866Y700700D01*
X630866Y667700D01*
X630877Y667635D01*
X630879Y667569D01*
X630897Y667526D01*
X630905Y667479D01*
X630939Y667422D01*
X630964Y667362D01*
X630995Y667327D01*
X631020Y667286D01*
X631071Y667245D01*
X631115Y667196D01*
X631157Y667174D01*
X631194Y667145D01*
X631256Y667124D01*
X631315Y667093D01*
X631369Y667085D01*
X631406Y667073D01*
X631446Y667074D01*
X631500Y667066D01*
X636500Y667066D01*
X636565Y667077D01*
G37*
G36*
X667065Y667077D02*
X667065Y667077D01*
X667131Y667079D01*
X667174Y667097D01*
X667221Y667105D01*
X667278Y667139D01*
X667338Y667164D01*
X667373Y667195D01*
X667414Y667220D01*
X667456Y667271D01*
X667504Y667315D01*
X667526Y667357D01*
X667555Y667394D01*
X667576Y667456D01*
X667607Y667515D01*
X667615Y667569D01*
X667627Y667606D01*
X667626Y667646D01*
X667634Y667700D01*
X667634Y700700D01*
X667623Y700765D01*
X667621Y700831D01*
X667603Y700874D01*
X667595Y700921D01*
X667561Y700978D01*
X667536Y701038D01*
X667505Y701073D01*
X667480Y701114D01*
X667429Y701156D01*
X667385Y701204D01*
X667343Y701226D01*
X667306Y701255D01*
X667244Y701276D01*
X667185Y701307D01*
X667131Y701315D01*
X667094Y701327D01*
X667054Y701326D01*
X667000Y701334D01*
X662000Y701334D01*
X661935Y701323D01*
X661869Y701321D01*
X661826Y701303D01*
X661779Y701295D01*
X661722Y701261D01*
X661662Y701236D01*
X661627Y701205D01*
X661586Y701180D01*
X661545Y701129D01*
X661496Y701085D01*
X661474Y701043D01*
X661445Y701006D01*
X661424Y700944D01*
X661393Y700885D01*
X661385Y700831D01*
X661373Y700794D01*
X661373Y700776D01*
X661373Y700775D01*
X661373Y700751D01*
X661366Y700700D01*
X661366Y687334D01*
X658000Y687334D01*
X657935Y687323D01*
X657869Y687321D01*
X657826Y687303D01*
X657779Y687295D01*
X657722Y687261D01*
X657662Y687236D01*
X657627Y687205D01*
X657586Y687180D01*
X657545Y687129D01*
X657496Y687085D01*
X657474Y687043D01*
X657445Y687006D01*
X657424Y686944D01*
X657393Y686885D01*
X657385Y686831D01*
X657373Y686794D01*
X657374Y686754D01*
X657366Y686700D01*
X657366Y681700D01*
X657377Y681635D01*
X657379Y681569D01*
X657397Y681526D01*
X657405Y681479D01*
X657439Y681422D01*
X657464Y681362D01*
X657495Y681327D01*
X657520Y681286D01*
X657571Y681245D01*
X657615Y681196D01*
X657657Y681174D01*
X657694Y681145D01*
X657756Y681124D01*
X657815Y681093D01*
X657869Y681085D01*
X657906Y681073D01*
X657946Y681074D01*
X658000Y681066D01*
X661366Y681066D01*
X661366Y667700D01*
X661377Y667635D01*
X661379Y667569D01*
X661397Y667526D01*
X661405Y667479D01*
X661439Y667422D01*
X661464Y667362D01*
X661495Y667327D01*
X661520Y667286D01*
X661571Y667245D01*
X661615Y667196D01*
X661657Y667174D01*
X661694Y667145D01*
X661756Y667124D01*
X661815Y667093D01*
X661869Y667085D01*
X661906Y667073D01*
X661946Y667074D01*
X662000Y667066D01*
X667000Y667066D01*
X667065Y667077D01*
G37*
G36*
X608565Y667077D02*
X608565Y667077D01*
X608631Y667079D01*
X608674Y667097D01*
X608721Y667105D01*
X608778Y667139D01*
X608838Y667164D01*
X608873Y667195D01*
X608914Y667220D01*
X608956Y667271D01*
X609004Y667315D01*
X609026Y667357D01*
X609055Y667394D01*
X609076Y667456D01*
X609107Y667515D01*
X609115Y667569D01*
X609127Y667606D01*
X609126Y667646D01*
X609134Y667700D01*
X609134Y700700D01*
X609123Y700765D01*
X609121Y700831D01*
X609103Y700874D01*
X609095Y700921D01*
X609061Y700978D01*
X609036Y701038D01*
X609005Y701073D01*
X608980Y701114D01*
X608929Y701156D01*
X608885Y701204D01*
X608843Y701226D01*
X608806Y701255D01*
X608744Y701276D01*
X608685Y701307D01*
X608631Y701315D01*
X608594Y701327D01*
X608554Y701326D01*
X608500Y701334D01*
X603500Y701334D01*
X603435Y701323D01*
X603369Y701321D01*
X603326Y701303D01*
X603279Y701295D01*
X603222Y701261D01*
X603162Y701236D01*
X603127Y701205D01*
X603086Y701180D01*
X603045Y701129D01*
X602996Y701085D01*
X602974Y701043D01*
X602945Y701006D01*
X602924Y700944D01*
X602893Y700885D01*
X602885Y700831D01*
X602873Y700794D01*
X602873Y700776D01*
X602873Y700775D01*
X602873Y700751D01*
X602866Y700700D01*
X602866Y687334D01*
X599500Y687334D01*
X599435Y687323D01*
X599369Y687321D01*
X599326Y687303D01*
X599279Y687295D01*
X599222Y687261D01*
X599162Y687236D01*
X599127Y687205D01*
X599086Y687180D01*
X599045Y687129D01*
X598996Y687085D01*
X598974Y687043D01*
X598945Y687006D01*
X598924Y686944D01*
X598893Y686885D01*
X598885Y686831D01*
X598873Y686794D01*
X598874Y686754D01*
X598866Y686700D01*
X598866Y681700D01*
X598877Y681635D01*
X598879Y681569D01*
X598897Y681526D01*
X598905Y681479D01*
X598939Y681422D01*
X598964Y681362D01*
X598995Y681327D01*
X599020Y681286D01*
X599071Y681245D01*
X599115Y681196D01*
X599157Y681174D01*
X599194Y681145D01*
X599256Y681124D01*
X599315Y681093D01*
X599369Y681085D01*
X599406Y681073D01*
X599446Y681074D01*
X599500Y681066D01*
X602866Y681066D01*
X602866Y667700D01*
X602877Y667635D01*
X602879Y667569D01*
X602897Y667526D01*
X602905Y667479D01*
X602939Y667422D01*
X602964Y667362D01*
X602995Y667327D01*
X603020Y667286D01*
X603071Y667245D01*
X603115Y667196D01*
X603157Y667174D01*
X603194Y667145D01*
X603256Y667124D01*
X603315Y667093D01*
X603369Y667085D01*
X603406Y667073D01*
X603446Y667074D01*
X603500Y667066D01*
X608500Y667066D01*
X608565Y667077D01*
G37*
G36*
X608565Y593577D02*
X608565Y593577D01*
X608631Y593579D01*
X608674Y593597D01*
X608721Y593605D01*
X608778Y593639D01*
X608838Y593664D01*
X608873Y593695D01*
X608914Y593720D01*
X608956Y593771D01*
X609004Y593815D01*
X609026Y593857D01*
X609055Y593894D01*
X609076Y593956D01*
X609107Y594015D01*
X609115Y594069D01*
X609127Y594106D01*
X609126Y594146D01*
X609134Y594200D01*
X609134Y627200D01*
X609123Y627265D01*
X609121Y627331D01*
X609103Y627374D01*
X609095Y627421D01*
X609061Y627478D01*
X609036Y627538D01*
X609005Y627573D01*
X608980Y627614D01*
X608929Y627656D01*
X608885Y627704D01*
X608843Y627726D01*
X608806Y627755D01*
X608744Y627776D01*
X608685Y627807D01*
X608631Y627815D01*
X608594Y627827D01*
X608554Y627826D01*
X608500Y627834D01*
X603500Y627834D01*
X603435Y627823D01*
X603369Y627821D01*
X603326Y627803D01*
X603279Y627795D01*
X603222Y627761D01*
X603162Y627736D01*
X603127Y627705D01*
X603086Y627680D01*
X603045Y627629D01*
X602996Y627585D01*
X602974Y627543D01*
X602945Y627506D01*
X602924Y627444D01*
X602893Y627385D01*
X602885Y627331D01*
X602873Y627294D01*
X602873Y627276D01*
X602873Y627275D01*
X602873Y627251D01*
X602866Y627200D01*
X602866Y613834D01*
X599500Y613834D01*
X599435Y613823D01*
X599369Y613821D01*
X599326Y613803D01*
X599279Y613795D01*
X599222Y613761D01*
X599162Y613736D01*
X599127Y613705D01*
X599086Y613680D01*
X599045Y613629D01*
X598996Y613585D01*
X598974Y613543D01*
X598945Y613506D01*
X598924Y613444D01*
X598893Y613385D01*
X598885Y613331D01*
X598873Y613294D01*
X598874Y613254D01*
X598866Y613200D01*
X598866Y608200D01*
X598877Y608135D01*
X598879Y608069D01*
X598897Y608026D01*
X598905Y607979D01*
X598939Y607922D01*
X598964Y607862D01*
X598995Y607827D01*
X599020Y607786D01*
X599071Y607745D01*
X599115Y607696D01*
X599157Y607674D01*
X599194Y607645D01*
X599256Y607624D01*
X599315Y607593D01*
X599369Y607585D01*
X599406Y607573D01*
X599446Y607574D01*
X599500Y607566D01*
X602866Y607566D01*
X602866Y594200D01*
X602877Y594135D01*
X602879Y594069D01*
X602897Y594026D01*
X602905Y593979D01*
X602939Y593922D01*
X602964Y593862D01*
X602995Y593827D01*
X603020Y593786D01*
X603071Y593745D01*
X603115Y593696D01*
X603157Y593674D01*
X603194Y593645D01*
X603256Y593624D01*
X603315Y593593D01*
X603369Y593585D01*
X603406Y593573D01*
X603446Y593574D01*
X603500Y593566D01*
X608500Y593566D01*
X608565Y593577D01*
G37*
G36*
X402565Y593577D02*
X402565Y593577D01*
X402631Y593579D01*
X402674Y593597D01*
X402721Y593605D01*
X402778Y593639D01*
X402838Y593664D01*
X402873Y593695D01*
X402914Y593720D01*
X402956Y593771D01*
X403004Y593815D01*
X403026Y593857D01*
X403055Y593894D01*
X403076Y593956D01*
X403107Y594015D01*
X403115Y594069D01*
X403127Y594106D01*
X403126Y594146D01*
X403134Y594200D01*
X403134Y607566D01*
X406500Y607566D01*
X406565Y607577D01*
X406631Y607579D01*
X406674Y607597D01*
X406721Y607605D01*
X406778Y607639D01*
X406838Y607664D01*
X406873Y607695D01*
X406914Y607720D01*
X406956Y607771D01*
X407004Y607815D01*
X407026Y607857D01*
X407055Y607894D01*
X407076Y607956D01*
X407107Y608015D01*
X407115Y608069D01*
X407127Y608106D01*
X407126Y608146D01*
X407134Y608200D01*
X407134Y613200D01*
X407123Y613265D01*
X407121Y613331D01*
X407103Y613374D01*
X407095Y613421D01*
X407061Y613478D01*
X407036Y613538D01*
X407005Y613573D01*
X406980Y613614D01*
X406929Y613656D01*
X406885Y613704D01*
X406843Y613726D01*
X406806Y613755D01*
X406744Y613776D01*
X406685Y613807D01*
X406631Y613815D01*
X406594Y613827D01*
X406554Y613826D01*
X406500Y613834D01*
X403134Y613834D01*
X403134Y627200D01*
X403123Y627265D01*
X403121Y627331D01*
X403103Y627374D01*
X403095Y627421D01*
X403061Y627478D01*
X403036Y627538D01*
X403005Y627573D01*
X402980Y627614D01*
X402929Y627656D01*
X402885Y627704D01*
X402843Y627726D01*
X402806Y627755D01*
X402744Y627776D01*
X402685Y627807D01*
X402631Y627815D01*
X402594Y627827D01*
X402554Y627826D01*
X402500Y627834D01*
X397500Y627834D01*
X397435Y627823D01*
X397369Y627821D01*
X397326Y627803D01*
X397279Y627795D01*
X397222Y627761D01*
X397162Y627736D01*
X397127Y627705D01*
X397086Y627680D01*
X397045Y627629D01*
X396996Y627585D01*
X396974Y627543D01*
X396945Y627506D01*
X396924Y627444D01*
X396893Y627385D01*
X396885Y627331D01*
X396873Y627294D01*
X396873Y627276D01*
X396873Y627275D01*
X396873Y627251D01*
X396866Y627200D01*
X396866Y594200D01*
X396877Y594135D01*
X396879Y594069D01*
X396897Y594026D01*
X396905Y593979D01*
X396939Y593922D01*
X396964Y593862D01*
X396995Y593827D01*
X397020Y593786D01*
X397071Y593745D01*
X397115Y593696D01*
X397157Y593674D01*
X397194Y593645D01*
X397256Y593624D01*
X397315Y593593D01*
X397369Y593585D01*
X397406Y593573D01*
X397446Y593574D01*
X397500Y593566D01*
X402500Y593566D01*
X402565Y593577D01*
G37*
G36*
X667065Y593577D02*
X667065Y593577D01*
X667131Y593579D01*
X667174Y593597D01*
X667221Y593605D01*
X667278Y593639D01*
X667338Y593664D01*
X667373Y593695D01*
X667414Y593720D01*
X667456Y593771D01*
X667504Y593815D01*
X667526Y593857D01*
X667555Y593894D01*
X667576Y593956D01*
X667607Y594015D01*
X667615Y594069D01*
X667627Y594106D01*
X667626Y594146D01*
X667634Y594200D01*
X667634Y627200D01*
X667623Y627265D01*
X667621Y627331D01*
X667603Y627374D01*
X667595Y627421D01*
X667561Y627478D01*
X667536Y627538D01*
X667505Y627573D01*
X667480Y627614D01*
X667429Y627656D01*
X667385Y627704D01*
X667343Y627726D01*
X667306Y627755D01*
X667244Y627776D01*
X667185Y627807D01*
X667131Y627815D01*
X667094Y627827D01*
X667054Y627826D01*
X667000Y627834D01*
X662000Y627834D01*
X661935Y627823D01*
X661869Y627821D01*
X661826Y627803D01*
X661779Y627795D01*
X661722Y627761D01*
X661662Y627736D01*
X661627Y627705D01*
X661586Y627680D01*
X661545Y627629D01*
X661496Y627585D01*
X661474Y627543D01*
X661445Y627506D01*
X661424Y627444D01*
X661393Y627385D01*
X661385Y627331D01*
X661373Y627294D01*
X661373Y627276D01*
X661373Y627275D01*
X661373Y627251D01*
X661366Y627200D01*
X661366Y613834D01*
X658000Y613834D01*
X657935Y613823D01*
X657869Y613821D01*
X657826Y613803D01*
X657779Y613795D01*
X657722Y613761D01*
X657662Y613736D01*
X657627Y613705D01*
X657586Y613680D01*
X657545Y613629D01*
X657496Y613585D01*
X657474Y613543D01*
X657445Y613506D01*
X657424Y613444D01*
X657393Y613385D01*
X657385Y613331D01*
X657373Y613294D01*
X657374Y613254D01*
X657366Y613200D01*
X657366Y608200D01*
X657377Y608135D01*
X657379Y608069D01*
X657397Y608026D01*
X657405Y607979D01*
X657439Y607922D01*
X657464Y607862D01*
X657495Y607827D01*
X657520Y607786D01*
X657571Y607745D01*
X657615Y607696D01*
X657657Y607674D01*
X657694Y607645D01*
X657756Y607624D01*
X657815Y607593D01*
X657869Y607585D01*
X657906Y607573D01*
X657946Y607574D01*
X658000Y607566D01*
X661366Y607566D01*
X661366Y594200D01*
X661377Y594135D01*
X661379Y594069D01*
X661397Y594026D01*
X661405Y593979D01*
X661439Y593922D01*
X661464Y593862D01*
X661495Y593827D01*
X661520Y593786D01*
X661571Y593745D01*
X661615Y593696D01*
X661657Y593674D01*
X661694Y593645D01*
X661756Y593624D01*
X661815Y593593D01*
X661869Y593585D01*
X661906Y593573D01*
X661946Y593574D01*
X662000Y593566D01*
X667000Y593566D01*
X667065Y593577D01*
G37*
G36*
X519565Y593577D02*
X519565Y593577D01*
X519631Y593579D01*
X519674Y593597D01*
X519721Y593605D01*
X519778Y593639D01*
X519838Y593664D01*
X519873Y593695D01*
X519914Y593720D01*
X519956Y593771D01*
X520004Y593815D01*
X520026Y593857D01*
X520055Y593894D01*
X520076Y593956D01*
X520107Y594015D01*
X520115Y594069D01*
X520127Y594106D01*
X520126Y594146D01*
X520134Y594200D01*
X520134Y607566D01*
X523500Y607566D01*
X523565Y607577D01*
X523631Y607579D01*
X523674Y607597D01*
X523721Y607605D01*
X523778Y607639D01*
X523838Y607664D01*
X523873Y607695D01*
X523914Y607720D01*
X523956Y607771D01*
X524004Y607815D01*
X524026Y607857D01*
X524055Y607894D01*
X524076Y607956D01*
X524107Y608015D01*
X524115Y608069D01*
X524127Y608106D01*
X524126Y608146D01*
X524134Y608200D01*
X524134Y613200D01*
X524123Y613265D01*
X524121Y613331D01*
X524103Y613374D01*
X524095Y613421D01*
X524061Y613478D01*
X524036Y613538D01*
X524005Y613573D01*
X523980Y613614D01*
X523929Y613656D01*
X523885Y613704D01*
X523843Y613726D01*
X523806Y613755D01*
X523744Y613776D01*
X523685Y613807D01*
X523631Y613815D01*
X523594Y613827D01*
X523554Y613826D01*
X523500Y613834D01*
X520134Y613834D01*
X520134Y627200D01*
X520123Y627265D01*
X520121Y627331D01*
X520103Y627374D01*
X520095Y627421D01*
X520061Y627478D01*
X520036Y627538D01*
X520005Y627573D01*
X519980Y627614D01*
X519929Y627656D01*
X519885Y627704D01*
X519843Y627726D01*
X519806Y627755D01*
X519744Y627776D01*
X519685Y627807D01*
X519631Y627815D01*
X519594Y627827D01*
X519554Y627826D01*
X519500Y627834D01*
X514500Y627834D01*
X514435Y627823D01*
X514369Y627821D01*
X514326Y627803D01*
X514279Y627795D01*
X514222Y627761D01*
X514162Y627736D01*
X514127Y627705D01*
X514086Y627680D01*
X514045Y627629D01*
X513996Y627585D01*
X513974Y627543D01*
X513945Y627506D01*
X513924Y627444D01*
X513893Y627385D01*
X513885Y627331D01*
X513873Y627294D01*
X513873Y627276D01*
X513873Y627275D01*
X513873Y627251D01*
X513866Y627200D01*
X513866Y594200D01*
X513877Y594135D01*
X513879Y594069D01*
X513897Y594026D01*
X513905Y593979D01*
X513939Y593922D01*
X513964Y593862D01*
X513995Y593827D01*
X514020Y593786D01*
X514071Y593745D01*
X514115Y593696D01*
X514157Y593674D01*
X514194Y593645D01*
X514256Y593624D01*
X514315Y593593D01*
X514369Y593585D01*
X514406Y593573D01*
X514446Y593574D01*
X514500Y593566D01*
X519500Y593566D01*
X519565Y593577D01*
G37*
G36*
X433065Y593577D02*
X433065Y593577D01*
X433131Y593579D01*
X433174Y593597D01*
X433221Y593605D01*
X433278Y593639D01*
X433338Y593664D01*
X433373Y593695D01*
X433414Y593720D01*
X433456Y593771D01*
X433504Y593815D01*
X433526Y593857D01*
X433555Y593894D01*
X433576Y593956D01*
X433607Y594015D01*
X433615Y594069D01*
X433627Y594106D01*
X433626Y594146D01*
X433634Y594200D01*
X433634Y627200D01*
X433623Y627265D01*
X433621Y627331D01*
X433603Y627374D01*
X433595Y627421D01*
X433561Y627478D01*
X433536Y627538D01*
X433505Y627573D01*
X433480Y627614D01*
X433429Y627656D01*
X433385Y627704D01*
X433343Y627726D01*
X433306Y627755D01*
X433244Y627776D01*
X433185Y627807D01*
X433131Y627815D01*
X433094Y627827D01*
X433054Y627826D01*
X433000Y627834D01*
X428000Y627834D01*
X427935Y627823D01*
X427869Y627821D01*
X427826Y627803D01*
X427779Y627795D01*
X427722Y627761D01*
X427662Y627736D01*
X427627Y627705D01*
X427586Y627680D01*
X427545Y627629D01*
X427496Y627585D01*
X427474Y627543D01*
X427445Y627506D01*
X427424Y627444D01*
X427393Y627385D01*
X427385Y627331D01*
X427373Y627294D01*
X427373Y627276D01*
X427373Y627275D01*
X427373Y627251D01*
X427366Y627200D01*
X427366Y613834D01*
X424000Y613834D01*
X423935Y613823D01*
X423869Y613821D01*
X423826Y613803D01*
X423779Y613795D01*
X423722Y613761D01*
X423662Y613736D01*
X423627Y613705D01*
X423586Y613680D01*
X423545Y613629D01*
X423496Y613585D01*
X423474Y613543D01*
X423445Y613506D01*
X423424Y613444D01*
X423393Y613385D01*
X423385Y613331D01*
X423373Y613294D01*
X423374Y613254D01*
X423366Y613200D01*
X423366Y608200D01*
X423377Y608135D01*
X423379Y608069D01*
X423397Y608026D01*
X423405Y607979D01*
X423439Y607922D01*
X423464Y607862D01*
X423495Y607827D01*
X423520Y607786D01*
X423571Y607745D01*
X423615Y607696D01*
X423657Y607674D01*
X423694Y607645D01*
X423756Y607624D01*
X423815Y607593D01*
X423869Y607585D01*
X423906Y607573D01*
X423946Y607574D01*
X424000Y607566D01*
X427366Y607566D01*
X427366Y594200D01*
X427377Y594135D01*
X427379Y594069D01*
X427397Y594026D01*
X427405Y593979D01*
X427439Y593922D01*
X427464Y593862D01*
X427495Y593827D01*
X427520Y593786D01*
X427571Y593745D01*
X427615Y593696D01*
X427657Y593674D01*
X427694Y593645D01*
X427756Y593624D01*
X427815Y593593D01*
X427869Y593585D01*
X427906Y593573D01*
X427946Y593574D01*
X428000Y593566D01*
X433000Y593566D01*
X433065Y593577D01*
G37*
G36*
X636565Y593577D02*
X636565Y593577D01*
X636631Y593579D01*
X636674Y593597D01*
X636721Y593605D01*
X636778Y593639D01*
X636838Y593664D01*
X636873Y593695D01*
X636914Y593720D01*
X636956Y593771D01*
X637004Y593815D01*
X637026Y593857D01*
X637055Y593894D01*
X637076Y593956D01*
X637107Y594015D01*
X637115Y594069D01*
X637127Y594106D01*
X637126Y594146D01*
X637134Y594200D01*
X637134Y607566D01*
X640500Y607566D01*
X640565Y607577D01*
X640631Y607579D01*
X640674Y607597D01*
X640721Y607605D01*
X640778Y607639D01*
X640838Y607664D01*
X640873Y607695D01*
X640914Y607720D01*
X640956Y607771D01*
X641004Y607815D01*
X641026Y607857D01*
X641055Y607894D01*
X641076Y607956D01*
X641107Y608015D01*
X641115Y608069D01*
X641127Y608106D01*
X641126Y608146D01*
X641134Y608200D01*
X641134Y613200D01*
X641123Y613265D01*
X641121Y613331D01*
X641103Y613374D01*
X641095Y613421D01*
X641061Y613478D01*
X641036Y613538D01*
X641005Y613573D01*
X640980Y613614D01*
X640929Y613656D01*
X640885Y613704D01*
X640843Y613726D01*
X640806Y613755D01*
X640744Y613776D01*
X640685Y613807D01*
X640631Y613815D01*
X640594Y613827D01*
X640554Y613826D01*
X640500Y613834D01*
X637134Y613834D01*
X637134Y627200D01*
X637123Y627265D01*
X637121Y627331D01*
X637103Y627374D01*
X637095Y627421D01*
X637061Y627478D01*
X637036Y627538D01*
X637005Y627573D01*
X636980Y627614D01*
X636929Y627656D01*
X636885Y627704D01*
X636843Y627726D01*
X636806Y627755D01*
X636744Y627776D01*
X636685Y627807D01*
X636631Y627815D01*
X636594Y627827D01*
X636554Y627826D01*
X636500Y627834D01*
X631500Y627834D01*
X631435Y627823D01*
X631369Y627821D01*
X631326Y627803D01*
X631279Y627795D01*
X631222Y627761D01*
X631162Y627736D01*
X631127Y627705D01*
X631086Y627680D01*
X631045Y627629D01*
X630996Y627585D01*
X630974Y627543D01*
X630945Y627506D01*
X630924Y627444D01*
X630893Y627385D01*
X630885Y627331D01*
X630873Y627294D01*
X630873Y627276D01*
X630873Y627275D01*
X630873Y627251D01*
X630866Y627200D01*
X630866Y594200D01*
X630877Y594135D01*
X630879Y594069D01*
X630897Y594026D01*
X630905Y593979D01*
X630939Y593922D01*
X630964Y593862D01*
X630995Y593827D01*
X631020Y593786D01*
X631071Y593745D01*
X631115Y593696D01*
X631157Y593674D01*
X631194Y593645D01*
X631256Y593624D01*
X631315Y593593D01*
X631369Y593585D01*
X631406Y593573D01*
X631446Y593574D01*
X631500Y593566D01*
X636500Y593566D01*
X636565Y593577D01*
G37*
G36*
X695065Y593577D02*
X695065Y593577D01*
X695131Y593579D01*
X695174Y593597D01*
X695221Y593605D01*
X695278Y593639D01*
X695338Y593664D01*
X695373Y593695D01*
X695414Y593720D01*
X695456Y593771D01*
X695504Y593815D01*
X695526Y593857D01*
X695555Y593894D01*
X695576Y593956D01*
X695607Y594015D01*
X695615Y594069D01*
X695627Y594106D01*
X695626Y594146D01*
X695634Y594200D01*
X695634Y607566D01*
X699000Y607566D01*
X699065Y607577D01*
X699131Y607579D01*
X699174Y607597D01*
X699221Y607605D01*
X699278Y607639D01*
X699338Y607664D01*
X699373Y607695D01*
X699414Y607720D01*
X699456Y607771D01*
X699504Y607815D01*
X699526Y607857D01*
X699555Y607894D01*
X699576Y607956D01*
X699607Y608015D01*
X699615Y608069D01*
X699627Y608106D01*
X699626Y608146D01*
X699634Y608200D01*
X699634Y613200D01*
X699623Y613265D01*
X699621Y613331D01*
X699603Y613374D01*
X699595Y613421D01*
X699561Y613478D01*
X699536Y613538D01*
X699505Y613573D01*
X699480Y613614D01*
X699429Y613656D01*
X699385Y613704D01*
X699343Y613726D01*
X699306Y613755D01*
X699244Y613776D01*
X699185Y613807D01*
X699131Y613815D01*
X699094Y613827D01*
X699054Y613826D01*
X699000Y613834D01*
X695634Y613834D01*
X695634Y627200D01*
X695623Y627265D01*
X695621Y627331D01*
X695603Y627374D01*
X695595Y627421D01*
X695561Y627478D01*
X695536Y627538D01*
X695505Y627573D01*
X695480Y627614D01*
X695429Y627656D01*
X695385Y627704D01*
X695343Y627726D01*
X695306Y627755D01*
X695244Y627776D01*
X695185Y627807D01*
X695131Y627815D01*
X695094Y627827D01*
X695054Y627826D01*
X695000Y627834D01*
X690000Y627834D01*
X689935Y627823D01*
X689869Y627821D01*
X689826Y627803D01*
X689779Y627795D01*
X689722Y627761D01*
X689662Y627736D01*
X689627Y627705D01*
X689586Y627680D01*
X689545Y627629D01*
X689496Y627585D01*
X689474Y627543D01*
X689445Y627506D01*
X689424Y627444D01*
X689393Y627385D01*
X689385Y627331D01*
X689373Y627294D01*
X689373Y627276D01*
X689373Y627275D01*
X689373Y627251D01*
X689366Y627200D01*
X689366Y594200D01*
X689377Y594135D01*
X689379Y594069D01*
X689397Y594026D01*
X689405Y593979D01*
X689439Y593922D01*
X689464Y593862D01*
X689495Y593827D01*
X689520Y593786D01*
X689571Y593745D01*
X689615Y593696D01*
X689657Y593674D01*
X689694Y593645D01*
X689756Y593624D01*
X689815Y593593D01*
X689869Y593585D01*
X689906Y593573D01*
X689946Y593574D01*
X690000Y593566D01*
X695000Y593566D01*
X695065Y593577D01*
G37*
G36*
X374565Y593577D02*
X374565Y593577D01*
X374631Y593579D01*
X374674Y593597D01*
X374721Y593605D01*
X374778Y593639D01*
X374838Y593664D01*
X374873Y593695D01*
X374914Y593720D01*
X374956Y593771D01*
X375004Y593815D01*
X375026Y593857D01*
X375055Y593894D01*
X375076Y593956D01*
X375107Y594015D01*
X375115Y594069D01*
X375127Y594106D01*
X375126Y594146D01*
X375134Y594200D01*
X375134Y627200D01*
X375123Y627265D01*
X375121Y627331D01*
X375103Y627374D01*
X375095Y627421D01*
X375061Y627478D01*
X375036Y627538D01*
X375005Y627573D01*
X374980Y627614D01*
X374929Y627656D01*
X374885Y627704D01*
X374843Y627726D01*
X374806Y627755D01*
X374744Y627776D01*
X374685Y627807D01*
X374631Y627815D01*
X374594Y627827D01*
X374554Y627826D01*
X374500Y627834D01*
X369500Y627834D01*
X369435Y627823D01*
X369369Y627821D01*
X369326Y627803D01*
X369279Y627795D01*
X369222Y627761D01*
X369162Y627736D01*
X369127Y627705D01*
X369086Y627680D01*
X369045Y627629D01*
X368996Y627585D01*
X368974Y627543D01*
X368945Y627506D01*
X368924Y627444D01*
X368893Y627385D01*
X368885Y627331D01*
X368873Y627294D01*
X368873Y627276D01*
X368873Y627275D01*
X368873Y627251D01*
X368866Y627200D01*
X368866Y613834D01*
X365500Y613834D01*
X365435Y613823D01*
X365369Y613821D01*
X365326Y613803D01*
X365279Y613795D01*
X365222Y613761D01*
X365162Y613736D01*
X365127Y613705D01*
X365086Y613680D01*
X365045Y613629D01*
X364996Y613585D01*
X364974Y613543D01*
X364945Y613506D01*
X364924Y613444D01*
X364893Y613385D01*
X364885Y613331D01*
X364873Y613294D01*
X364874Y613254D01*
X364866Y613200D01*
X364866Y608200D01*
X364877Y608135D01*
X364879Y608069D01*
X364897Y608026D01*
X364905Y607979D01*
X364939Y607922D01*
X364964Y607862D01*
X364995Y607827D01*
X365020Y607786D01*
X365071Y607745D01*
X365115Y607696D01*
X365157Y607674D01*
X365194Y607645D01*
X365256Y607624D01*
X365315Y607593D01*
X365369Y607585D01*
X365406Y607573D01*
X365446Y607574D01*
X365500Y607566D01*
X368866Y607566D01*
X368866Y594200D01*
X368877Y594135D01*
X368879Y594069D01*
X368897Y594026D01*
X368905Y593979D01*
X368939Y593922D01*
X368964Y593862D01*
X368995Y593827D01*
X369020Y593786D01*
X369071Y593745D01*
X369115Y593696D01*
X369157Y593674D01*
X369194Y593645D01*
X369256Y593624D01*
X369315Y593593D01*
X369369Y593585D01*
X369406Y593573D01*
X369446Y593574D01*
X369500Y593566D01*
X374500Y593566D01*
X374565Y593577D01*
G37*
G36*
X578065Y593577D02*
X578065Y593577D01*
X578131Y593579D01*
X578174Y593597D01*
X578221Y593605D01*
X578278Y593639D01*
X578338Y593664D01*
X578373Y593695D01*
X578414Y593720D01*
X578456Y593771D01*
X578504Y593815D01*
X578526Y593857D01*
X578555Y593894D01*
X578576Y593956D01*
X578607Y594015D01*
X578615Y594069D01*
X578627Y594106D01*
X578626Y594146D01*
X578634Y594200D01*
X578634Y607566D01*
X582000Y607566D01*
X582065Y607577D01*
X582131Y607579D01*
X582174Y607597D01*
X582221Y607605D01*
X582278Y607639D01*
X582338Y607664D01*
X582373Y607695D01*
X582414Y607720D01*
X582456Y607771D01*
X582504Y607815D01*
X582526Y607857D01*
X582555Y607894D01*
X582576Y607956D01*
X582607Y608015D01*
X582615Y608069D01*
X582627Y608106D01*
X582626Y608146D01*
X582634Y608200D01*
X582634Y613200D01*
X582623Y613265D01*
X582621Y613331D01*
X582603Y613374D01*
X582595Y613421D01*
X582561Y613478D01*
X582536Y613538D01*
X582505Y613573D01*
X582480Y613614D01*
X582429Y613656D01*
X582385Y613704D01*
X582343Y613726D01*
X582306Y613755D01*
X582244Y613776D01*
X582185Y613807D01*
X582131Y613815D01*
X582094Y613827D01*
X582054Y613826D01*
X582000Y613834D01*
X578634Y613834D01*
X578634Y627200D01*
X578623Y627265D01*
X578621Y627331D01*
X578603Y627374D01*
X578595Y627421D01*
X578561Y627478D01*
X578536Y627538D01*
X578505Y627573D01*
X578480Y627614D01*
X578429Y627656D01*
X578385Y627704D01*
X578343Y627726D01*
X578306Y627755D01*
X578244Y627776D01*
X578185Y627807D01*
X578131Y627815D01*
X578094Y627827D01*
X578054Y627826D01*
X578000Y627834D01*
X573000Y627834D01*
X572935Y627823D01*
X572869Y627821D01*
X572826Y627803D01*
X572779Y627795D01*
X572722Y627761D01*
X572662Y627736D01*
X572627Y627705D01*
X572586Y627680D01*
X572545Y627629D01*
X572496Y627585D01*
X572474Y627543D01*
X572445Y627506D01*
X572424Y627444D01*
X572393Y627385D01*
X572385Y627331D01*
X572373Y627294D01*
X572373Y627276D01*
X572373Y627275D01*
X572373Y627251D01*
X572366Y627200D01*
X572366Y594200D01*
X572377Y594135D01*
X572379Y594069D01*
X572397Y594026D01*
X572405Y593979D01*
X572439Y593922D01*
X572464Y593862D01*
X572495Y593827D01*
X572520Y593786D01*
X572571Y593745D01*
X572615Y593696D01*
X572657Y593674D01*
X572694Y593645D01*
X572756Y593624D01*
X572815Y593593D01*
X572869Y593585D01*
X572906Y593573D01*
X572946Y593574D01*
X573000Y593566D01*
X578000Y593566D01*
X578065Y593577D01*
G37*
G36*
X491565Y593577D02*
X491565Y593577D01*
X491631Y593579D01*
X491674Y593597D01*
X491721Y593605D01*
X491778Y593639D01*
X491838Y593664D01*
X491873Y593695D01*
X491914Y593720D01*
X491956Y593771D01*
X492004Y593815D01*
X492026Y593857D01*
X492055Y593894D01*
X492076Y593956D01*
X492107Y594015D01*
X492115Y594069D01*
X492127Y594106D01*
X492126Y594146D01*
X492134Y594200D01*
X492134Y627200D01*
X492123Y627265D01*
X492121Y627331D01*
X492103Y627374D01*
X492095Y627421D01*
X492061Y627478D01*
X492036Y627538D01*
X492005Y627573D01*
X491980Y627614D01*
X491929Y627656D01*
X491885Y627704D01*
X491843Y627726D01*
X491806Y627755D01*
X491744Y627776D01*
X491685Y627807D01*
X491631Y627815D01*
X491594Y627827D01*
X491554Y627826D01*
X491500Y627834D01*
X486500Y627834D01*
X486435Y627823D01*
X486369Y627821D01*
X486326Y627803D01*
X486279Y627795D01*
X486222Y627761D01*
X486162Y627736D01*
X486127Y627705D01*
X486086Y627680D01*
X486045Y627629D01*
X485996Y627585D01*
X485974Y627543D01*
X485945Y627506D01*
X485924Y627444D01*
X485893Y627385D01*
X485885Y627331D01*
X485873Y627294D01*
X485873Y627276D01*
X485873Y627275D01*
X485873Y627251D01*
X485866Y627200D01*
X485866Y613834D01*
X482500Y613834D01*
X482435Y613823D01*
X482369Y613821D01*
X482326Y613803D01*
X482279Y613795D01*
X482222Y613761D01*
X482162Y613736D01*
X482127Y613705D01*
X482086Y613680D01*
X482045Y613629D01*
X481996Y613585D01*
X481974Y613543D01*
X481945Y613506D01*
X481924Y613444D01*
X481893Y613385D01*
X481885Y613331D01*
X481873Y613294D01*
X481874Y613254D01*
X481866Y613200D01*
X481866Y608200D01*
X481877Y608135D01*
X481879Y608069D01*
X481897Y608026D01*
X481905Y607979D01*
X481939Y607922D01*
X481964Y607862D01*
X481995Y607827D01*
X482020Y607786D01*
X482071Y607745D01*
X482115Y607696D01*
X482157Y607674D01*
X482194Y607645D01*
X482256Y607624D01*
X482315Y607593D01*
X482369Y607585D01*
X482406Y607573D01*
X482446Y607574D01*
X482500Y607566D01*
X485866Y607566D01*
X485866Y594200D01*
X485877Y594135D01*
X485879Y594069D01*
X485897Y594026D01*
X485905Y593979D01*
X485939Y593922D01*
X485964Y593862D01*
X485995Y593827D01*
X486020Y593786D01*
X486071Y593745D01*
X486115Y593696D01*
X486157Y593674D01*
X486194Y593645D01*
X486256Y593624D01*
X486315Y593593D01*
X486369Y593585D01*
X486406Y593573D01*
X486446Y593574D01*
X486500Y593566D01*
X491500Y593566D01*
X491565Y593577D01*
G37*
G36*
X550065Y593577D02*
X550065Y593577D01*
X550131Y593579D01*
X550174Y593597D01*
X550221Y593605D01*
X550278Y593639D01*
X550338Y593664D01*
X550373Y593695D01*
X550414Y593720D01*
X550456Y593771D01*
X550504Y593815D01*
X550526Y593857D01*
X550555Y593894D01*
X550576Y593956D01*
X550607Y594015D01*
X550615Y594069D01*
X550627Y594106D01*
X550626Y594146D01*
X550634Y594200D01*
X550634Y627200D01*
X550623Y627265D01*
X550621Y627331D01*
X550603Y627374D01*
X550595Y627421D01*
X550561Y627478D01*
X550536Y627538D01*
X550505Y627573D01*
X550480Y627614D01*
X550429Y627656D01*
X550385Y627704D01*
X550343Y627726D01*
X550306Y627755D01*
X550244Y627776D01*
X550185Y627807D01*
X550131Y627815D01*
X550094Y627827D01*
X550054Y627826D01*
X550000Y627834D01*
X545000Y627834D01*
X544935Y627823D01*
X544869Y627821D01*
X544826Y627803D01*
X544779Y627795D01*
X544722Y627761D01*
X544662Y627736D01*
X544627Y627705D01*
X544586Y627680D01*
X544545Y627629D01*
X544496Y627585D01*
X544474Y627543D01*
X544445Y627506D01*
X544424Y627444D01*
X544393Y627385D01*
X544385Y627331D01*
X544373Y627294D01*
X544373Y627276D01*
X544373Y627275D01*
X544373Y627251D01*
X544366Y627200D01*
X544366Y613834D01*
X541000Y613834D01*
X540935Y613823D01*
X540869Y613821D01*
X540826Y613803D01*
X540779Y613795D01*
X540722Y613761D01*
X540662Y613736D01*
X540627Y613705D01*
X540586Y613680D01*
X540545Y613629D01*
X540496Y613585D01*
X540474Y613543D01*
X540445Y613506D01*
X540424Y613444D01*
X540393Y613385D01*
X540385Y613331D01*
X540373Y613294D01*
X540374Y613254D01*
X540366Y613200D01*
X540366Y608200D01*
X540377Y608135D01*
X540379Y608069D01*
X540397Y608026D01*
X540405Y607979D01*
X540439Y607922D01*
X540464Y607862D01*
X540495Y607827D01*
X540520Y607786D01*
X540571Y607745D01*
X540615Y607696D01*
X540657Y607674D01*
X540694Y607645D01*
X540756Y607624D01*
X540815Y607593D01*
X540869Y607585D01*
X540906Y607573D01*
X540946Y607574D01*
X541000Y607566D01*
X544366Y607566D01*
X544366Y594200D01*
X544377Y594135D01*
X544379Y594069D01*
X544397Y594026D01*
X544405Y593979D01*
X544439Y593922D01*
X544464Y593862D01*
X544495Y593827D01*
X544520Y593786D01*
X544571Y593745D01*
X544615Y593696D01*
X544657Y593674D01*
X544694Y593645D01*
X544756Y593624D01*
X544815Y593593D01*
X544869Y593585D01*
X544906Y593573D01*
X544946Y593574D01*
X545000Y593566D01*
X550000Y593566D01*
X550065Y593577D01*
G37*
G36*
X461065Y593577D02*
X461065Y593577D01*
X461131Y593579D01*
X461174Y593597D01*
X461221Y593605D01*
X461278Y593639D01*
X461338Y593664D01*
X461373Y593695D01*
X461414Y593720D01*
X461456Y593771D01*
X461504Y593815D01*
X461526Y593857D01*
X461555Y593894D01*
X461576Y593956D01*
X461607Y594015D01*
X461615Y594069D01*
X461627Y594106D01*
X461626Y594146D01*
X461634Y594200D01*
X461634Y607566D01*
X465000Y607566D01*
X465065Y607577D01*
X465131Y607579D01*
X465174Y607597D01*
X465221Y607605D01*
X465278Y607639D01*
X465338Y607664D01*
X465373Y607695D01*
X465414Y607720D01*
X465456Y607771D01*
X465504Y607815D01*
X465526Y607857D01*
X465555Y607894D01*
X465576Y607956D01*
X465607Y608015D01*
X465615Y608069D01*
X465627Y608106D01*
X465626Y608146D01*
X465634Y608200D01*
X465634Y613200D01*
X465623Y613265D01*
X465621Y613331D01*
X465603Y613374D01*
X465595Y613421D01*
X465561Y613478D01*
X465536Y613538D01*
X465505Y613573D01*
X465480Y613614D01*
X465429Y613656D01*
X465385Y613704D01*
X465343Y613726D01*
X465306Y613755D01*
X465244Y613776D01*
X465185Y613807D01*
X465131Y613815D01*
X465094Y613827D01*
X465054Y613826D01*
X465000Y613834D01*
X461634Y613834D01*
X461634Y627200D01*
X461623Y627265D01*
X461621Y627331D01*
X461603Y627374D01*
X461595Y627421D01*
X461561Y627478D01*
X461536Y627538D01*
X461505Y627573D01*
X461480Y627614D01*
X461429Y627656D01*
X461385Y627704D01*
X461343Y627726D01*
X461306Y627755D01*
X461244Y627776D01*
X461185Y627807D01*
X461131Y627815D01*
X461094Y627827D01*
X461054Y627826D01*
X461000Y627834D01*
X456000Y627834D01*
X455935Y627823D01*
X455869Y627821D01*
X455826Y627803D01*
X455779Y627795D01*
X455722Y627761D01*
X455662Y627736D01*
X455627Y627705D01*
X455586Y627680D01*
X455545Y627629D01*
X455496Y627585D01*
X455474Y627543D01*
X455445Y627506D01*
X455424Y627444D01*
X455393Y627385D01*
X455385Y627331D01*
X455373Y627294D01*
X455373Y627276D01*
X455373Y627275D01*
X455373Y627251D01*
X455366Y627200D01*
X455366Y594200D01*
X455377Y594135D01*
X455379Y594069D01*
X455397Y594026D01*
X455405Y593979D01*
X455439Y593922D01*
X455464Y593862D01*
X455495Y593827D01*
X455520Y593786D01*
X455571Y593745D01*
X455615Y593696D01*
X455657Y593674D01*
X455694Y593645D01*
X455756Y593624D01*
X455815Y593593D01*
X455869Y593585D01*
X455906Y593573D01*
X455946Y593574D01*
X456000Y593566D01*
X461000Y593566D01*
X461065Y593577D01*
G37*
G36*
X636565Y517377D02*
X636565Y517377D01*
X636631Y517379D01*
X636674Y517397D01*
X636721Y517405D01*
X636778Y517439D01*
X636838Y517464D01*
X636873Y517495D01*
X636914Y517520D01*
X636956Y517571D01*
X637004Y517615D01*
X637026Y517657D01*
X637055Y517694D01*
X637076Y517756D01*
X637107Y517815D01*
X637115Y517869D01*
X637127Y517906D01*
X637126Y517946D01*
X637134Y518000D01*
X637134Y531366D01*
X640500Y531366D01*
X640565Y531377D01*
X640631Y531379D01*
X640674Y531397D01*
X640721Y531405D01*
X640778Y531439D01*
X640838Y531464D01*
X640873Y531495D01*
X640914Y531520D01*
X640956Y531571D01*
X641004Y531615D01*
X641026Y531657D01*
X641055Y531694D01*
X641076Y531756D01*
X641107Y531815D01*
X641115Y531869D01*
X641127Y531906D01*
X641126Y531946D01*
X641134Y532000D01*
X641134Y537000D01*
X641123Y537065D01*
X641121Y537131D01*
X641103Y537174D01*
X641095Y537221D01*
X641061Y537278D01*
X641036Y537338D01*
X641005Y537373D01*
X640980Y537414D01*
X640929Y537456D01*
X640885Y537504D01*
X640843Y537526D01*
X640806Y537555D01*
X640744Y537576D01*
X640685Y537607D01*
X640631Y537615D01*
X640594Y537627D01*
X640554Y537626D01*
X640500Y537634D01*
X637134Y537634D01*
X637134Y551000D01*
X637123Y551065D01*
X637121Y551131D01*
X637103Y551174D01*
X637095Y551221D01*
X637061Y551278D01*
X637036Y551338D01*
X637005Y551373D01*
X636980Y551414D01*
X636929Y551456D01*
X636885Y551504D01*
X636843Y551526D01*
X636806Y551555D01*
X636744Y551576D01*
X636685Y551607D01*
X636631Y551615D01*
X636594Y551627D01*
X636554Y551626D01*
X636500Y551634D01*
X631500Y551634D01*
X631435Y551623D01*
X631369Y551621D01*
X631326Y551603D01*
X631279Y551595D01*
X631222Y551561D01*
X631162Y551536D01*
X631127Y551505D01*
X631086Y551480D01*
X631045Y551429D01*
X630996Y551385D01*
X630974Y551343D01*
X630945Y551306D01*
X630924Y551244D01*
X630893Y551185D01*
X630885Y551131D01*
X630873Y551094D01*
X630873Y551076D01*
X630873Y551075D01*
X630873Y551051D01*
X630866Y551000D01*
X630866Y518000D01*
X630877Y517935D01*
X630879Y517869D01*
X630897Y517826D01*
X630905Y517779D01*
X630939Y517722D01*
X630964Y517662D01*
X630995Y517627D01*
X631020Y517586D01*
X631071Y517545D01*
X631115Y517496D01*
X631157Y517474D01*
X631194Y517445D01*
X631256Y517424D01*
X631315Y517393D01*
X631369Y517385D01*
X631406Y517373D01*
X631446Y517374D01*
X631500Y517366D01*
X636500Y517366D01*
X636565Y517377D01*
G37*
G36*
X461065Y517377D02*
X461065Y517377D01*
X461131Y517379D01*
X461174Y517397D01*
X461221Y517405D01*
X461278Y517439D01*
X461338Y517464D01*
X461373Y517495D01*
X461414Y517520D01*
X461456Y517571D01*
X461504Y517615D01*
X461526Y517657D01*
X461555Y517694D01*
X461576Y517756D01*
X461607Y517815D01*
X461615Y517869D01*
X461627Y517906D01*
X461626Y517946D01*
X461634Y518000D01*
X461634Y531366D01*
X465000Y531366D01*
X465065Y531377D01*
X465131Y531379D01*
X465174Y531397D01*
X465221Y531405D01*
X465278Y531439D01*
X465338Y531464D01*
X465373Y531495D01*
X465414Y531520D01*
X465456Y531571D01*
X465504Y531615D01*
X465526Y531657D01*
X465555Y531694D01*
X465576Y531756D01*
X465607Y531815D01*
X465615Y531869D01*
X465627Y531906D01*
X465626Y531946D01*
X465634Y532000D01*
X465634Y537000D01*
X465623Y537065D01*
X465621Y537131D01*
X465603Y537174D01*
X465595Y537221D01*
X465561Y537278D01*
X465536Y537338D01*
X465505Y537373D01*
X465480Y537414D01*
X465429Y537456D01*
X465385Y537504D01*
X465343Y537526D01*
X465306Y537555D01*
X465244Y537576D01*
X465185Y537607D01*
X465131Y537615D01*
X465094Y537627D01*
X465054Y537626D01*
X465000Y537634D01*
X461634Y537634D01*
X461634Y551000D01*
X461623Y551065D01*
X461621Y551131D01*
X461603Y551174D01*
X461595Y551221D01*
X461561Y551278D01*
X461536Y551338D01*
X461505Y551373D01*
X461480Y551414D01*
X461429Y551456D01*
X461385Y551504D01*
X461343Y551526D01*
X461306Y551555D01*
X461244Y551576D01*
X461185Y551607D01*
X461131Y551615D01*
X461094Y551627D01*
X461054Y551626D01*
X461000Y551634D01*
X456000Y551634D01*
X455935Y551623D01*
X455869Y551621D01*
X455826Y551603D01*
X455779Y551595D01*
X455722Y551561D01*
X455662Y551536D01*
X455627Y551505D01*
X455586Y551480D01*
X455545Y551429D01*
X455496Y551385D01*
X455474Y551343D01*
X455445Y551306D01*
X455424Y551244D01*
X455393Y551185D01*
X455385Y551131D01*
X455373Y551094D01*
X455373Y551076D01*
X455373Y551075D01*
X455373Y551051D01*
X455366Y551000D01*
X455366Y518000D01*
X455377Y517935D01*
X455379Y517869D01*
X455397Y517826D01*
X455405Y517779D01*
X455439Y517722D01*
X455464Y517662D01*
X455495Y517627D01*
X455520Y517586D01*
X455571Y517545D01*
X455615Y517496D01*
X455657Y517474D01*
X455694Y517445D01*
X455756Y517424D01*
X455815Y517393D01*
X455869Y517385D01*
X455906Y517373D01*
X455946Y517374D01*
X456000Y517366D01*
X461000Y517366D01*
X461065Y517377D01*
G37*
G36*
X402565Y517377D02*
X402565Y517377D01*
X402631Y517379D01*
X402674Y517397D01*
X402721Y517405D01*
X402778Y517439D01*
X402838Y517464D01*
X402873Y517495D01*
X402914Y517520D01*
X402956Y517571D01*
X403004Y517615D01*
X403026Y517657D01*
X403055Y517694D01*
X403076Y517756D01*
X403107Y517815D01*
X403115Y517869D01*
X403127Y517906D01*
X403126Y517946D01*
X403134Y518000D01*
X403134Y531366D01*
X406500Y531366D01*
X406565Y531377D01*
X406631Y531379D01*
X406674Y531397D01*
X406721Y531405D01*
X406778Y531439D01*
X406838Y531464D01*
X406873Y531495D01*
X406914Y531520D01*
X406956Y531571D01*
X407004Y531615D01*
X407026Y531657D01*
X407055Y531694D01*
X407076Y531756D01*
X407107Y531815D01*
X407115Y531869D01*
X407127Y531906D01*
X407126Y531946D01*
X407134Y532000D01*
X407134Y537000D01*
X407123Y537065D01*
X407121Y537131D01*
X407103Y537174D01*
X407095Y537221D01*
X407061Y537278D01*
X407036Y537338D01*
X407005Y537373D01*
X406980Y537414D01*
X406929Y537456D01*
X406885Y537504D01*
X406843Y537526D01*
X406806Y537555D01*
X406744Y537576D01*
X406685Y537607D01*
X406631Y537615D01*
X406594Y537627D01*
X406554Y537626D01*
X406500Y537634D01*
X403134Y537634D01*
X403134Y551000D01*
X403123Y551065D01*
X403121Y551131D01*
X403103Y551174D01*
X403095Y551221D01*
X403061Y551278D01*
X403036Y551338D01*
X403005Y551373D01*
X402980Y551414D01*
X402929Y551456D01*
X402885Y551504D01*
X402843Y551526D01*
X402806Y551555D01*
X402744Y551576D01*
X402685Y551607D01*
X402631Y551615D01*
X402594Y551627D01*
X402554Y551626D01*
X402500Y551634D01*
X397500Y551634D01*
X397435Y551623D01*
X397369Y551621D01*
X397326Y551603D01*
X397279Y551595D01*
X397222Y551561D01*
X397162Y551536D01*
X397127Y551505D01*
X397086Y551480D01*
X397045Y551429D01*
X396996Y551385D01*
X396974Y551343D01*
X396945Y551306D01*
X396924Y551244D01*
X396893Y551185D01*
X396885Y551131D01*
X396873Y551094D01*
X396873Y551076D01*
X396873Y551075D01*
X396873Y551051D01*
X396866Y551000D01*
X396866Y518000D01*
X396877Y517935D01*
X396879Y517869D01*
X396897Y517826D01*
X396905Y517779D01*
X396939Y517722D01*
X396964Y517662D01*
X396995Y517627D01*
X397020Y517586D01*
X397071Y517545D01*
X397115Y517496D01*
X397157Y517474D01*
X397194Y517445D01*
X397256Y517424D01*
X397315Y517393D01*
X397369Y517385D01*
X397406Y517373D01*
X397446Y517374D01*
X397500Y517366D01*
X402500Y517366D01*
X402565Y517377D01*
G37*
G36*
X695065Y517377D02*
X695065Y517377D01*
X695131Y517379D01*
X695174Y517397D01*
X695221Y517405D01*
X695278Y517439D01*
X695338Y517464D01*
X695373Y517495D01*
X695414Y517520D01*
X695456Y517571D01*
X695504Y517615D01*
X695526Y517657D01*
X695555Y517694D01*
X695576Y517756D01*
X695607Y517815D01*
X695615Y517869D01*
X695627Y517906D01*
X695626Y517946D01*
X695634Y518000D01*
X695634Y531366D01*
X699000Y531366D01*
X699065Y531377D01*
X699131Y531379D01*
X699174Y531397D01*
X699221Y531405D01*
X699278Y531439D01*
X699338Y531464D01*
X699373Y531495D01*
X699414Y531520D01*
X699456Y531571D01*
X699504Y531615D01*
X699526Y531657D01*
X699555Y531694D01*
X699576Y531756D01*
X699607Y531815D01*
X699615Y531869D01*
X699627Y531906D01*
X699626Y531946D01*
X699634Y532000D01*
X699634Y537000D01*
X699623Y537065D01*
X699621Y537131D01*
X699603Y537174D01*
X699595Y537221D01*
X699561Y537278D01*
X699536Y537338D01*
X699505Y537373D01*
X699480Y537414D01*
X699429Y537456D01*
X699385Y537504D01*
X699343Y537526D01*
X699306Y537555D01*
X699244Y537576D01*
X699185Y537607D01*
X699131Y537615D01*
X699094Y537627D01*
X699054Y537626D01*
X699000Y537634D01*
X695634Y537634D01*
X695634Y551000D01*
X695623Y551065D01*
X695621Y551131D01*
X695603Y551174D01*
X695595Y551221D01*
X695561Y551278D01*
X695536Y551338D01*
X695505Y551373D01*
X695480Y551414D01*
X695429Y551456D01*
X695385Y551504D01*
X695343Y551526D01*
X695306Y551555D01*
X695244Y551576D01*
X695185Y551607D01*
X695131Y551615D01*
X695094Y551627D01*
X695054Y551626D01*
X695000Y551634D01*
X690000Y551634D01*
X689935Y551623D01*
X689869Y551621D01*
X689826Y551603D01*
X689779Y551595D01*
X689722Y551561D01*
X689662Y551536D01*
X689627Y551505D01*
X689586Y551480D01*
X689545Y551429D01*
X689496Y551385D01*
X689474Y551343D01*
X689445Y551306D01*
X689424Y551244D01*
X689393Y551185D01*
X689385Y551131D01*
X689373Y551094D01*
X689373Y551076D01*
X689373Y551075D01*
X689373Y551051D01*
X689366Y551000D01*
X689366Y518000D01*
X689377Y517935D01*
X689379Y517869D01*
X689397Y517826D01*
X689405Y517779D01*
X689439Y517722D01*
X689464Y517662D01*
X689495Y517627D01*
X689520Y517586D01*
X689571Y517545D01*
X689615Y517496D01*
X689657Y517474D01*
X689694Y517445D01*
X689756Y517424D01*
X689815Y517393D01*
X689869Y517385D01*
X689906Y517373D01*
X689946Y517374D01*
X690000Y517366D01*
X695000Y517366D01*
X695065Y517377D01*
G37*
G36*
X433065Y517377D02*
X433065Y517377D01*
X433131Y517379D01*
X433174Y517397D01*
X433221Y517405D01*
X433278Y517439D01*
X433338Y517464D01*
X433373Y517495D01*
X433414Y517520D01*
X433456Y517571D01*
X433504Y517615D01*
X433526Y517657D01*
X433555Y517694D01*
X433576Y517756D01*
X433607Y517815D01*
X433615Y517869D01*
X433627Y517906D01*
X433626Y517946D01*
X433634Y518000D01*
X433634Y551000D01*
X433623Y551065D01*
X433621Y551131D01*
X433603Y551174D01*
X433595Y551221D01*
X433561Y551278D01*
X433536Y551338D01*
X433505Y551373D01*
X433480Y551414D01*
X433429Y551456D01*
X433385Y551504D01*
X433343Y551526D01*
X433306Y551555D01*
X433244Y551576D01*
X433185Y551607D01*
X433131Y551615D01*
X433094Y551627D01*
X433054Y551626D01*
X433000Y551634D01*
X428000Y551634D01*
X427935Y551623D01*
X427869Y551621D01*
X427826Y551603D01*
X427779Y551595D01*
X427722Y551561D01*
X427662Y551536D01*
X427627Y551505D01*
X427586Y551480D01*
X427545Y551429D01*
X427496Y551385D01*
X427474Y551343D01*
X427445Y551306D01*
X427424Y551244D01*
X427393Y551185D01*
X427385Y551131D01*
X427373Y551094D01*
X427373Y551076D01*
X427373Y551075D01*
X427373Y551051D01*
X427366Y551000D01*
X427366Y537634D01*
X424000Y537634D01*
X423935Y537623D01*
X423869Y537621D01*
X423826Y537603D01*
X423779Y537595D01*
X423722Y537561D01*
X423662Y537536D01*
X423627Y537505D01*
X423586Y537480D01*
X423545Y537429D01*
X423496Y537385D01*
X423474Y537343D01*
X423445Y537306D01*
X423424Y537244D01*
X423393Y537185D01*
X423385Y537131D01*
X423373Y537094D01*
X423374Y537054D01*
X423366Y537000D01*
X423366Y532000D01*
X423377Y531935D01*
X423379Y531869D01*
X423397Y531826D01*
X423405Y531779D01*
X423439Y531722D01*
X423464Y531662D01*
X423495Y531627D01*
X423520Y531586D01*
X423571Y531545D01*
X423615Y531496D01*
X423657Y531474D01*
X423694Y531445D01*
X423756Y531424D01*
X423815Y531393D01*
X423869Y531385D01*
X423906Y531373D01*
X423946Y531374D01*
X424000Y531366D01*
X427366Y531366D01*
X427366Y518000D01*
X427377Y517935D01*
X427379Y517869D01*
X427397Y517826D01*
X427405Y517779D01*
X427439Y517722D01*
X427464Y517662D01*
X427495Y517627D01*
X427520Y517586D01*
X427571Y517545D01*
X427615Y517496D01*
X427657Y517474D01*
X427694Y517445D01*
X427756Y517424D01*
X427815Y517393D01*
X427869Y517385D01*
X427906Y517373D01*
X427946Y517374D01*
X428000Y517366D01*
X433000Y517366D01*
X433065Y517377D01*
G37*
G36*
X578065Y517377D02*
X578065Y517377D01*
X578131Y517379D01*
X578174Y517397D01*
X578221Y517405D01*
X578278Y517439D01*
X578338Y517464D01*
X578373Y517495D01*
X578414Y517520D01*
X578456Y517571D01*
X578504Y517615D01*
X578526Y517657D01*
X578555Y517694D01*
X578576Y517756D01*
X578607Y517815D01*
X578615Y517869D01*
X578627Y517906D01*
X578626Y517946D01*
X578634Y518000D01*
X578634Y531366D01*
X582000Y531366D01*
X582065Y531377D01*
X582131Y531379D01*
X582174Y531397D01*
X582221Y531405D01*
X582278Y531439D01*
X582338Y531464D01*
X582373Y531495D01*
X582414Y531520D01*
X582456Y531571D01*
X582504Y531615D01*
X582526Y531657D01*
X582555Y531694D01*
X582576Y531756D01*
X582607Y531815D01*
X582615Y531869D01*
X582627Y531906D01*
X582626Y531946D01*
X582634Y532000D01*
X582634Y537000D01*
X582623Y537065D01*
X582621Y537131D01*
X582603Y537174D01*
X582595Y537221D01*
X582561Y537278D01*
X582536Y537338D01*
X582505Y537373D01*
X582480Y537414D01*
X582429Y537456D01*
X582385Y537504D01*
X582343Y537526D01*
X582306Y537555D01*
X582244Y537576D01*
X582185Y537607D01*
X582131Y537615D01*
X582094Y537627D01*
X582054Y537626D01*
X582000Y537634D01*
X578634Y537634D01*
X578634Y551000D01*
X578623Y551065D01*
X578621Y551131D01*
X578603Y551174D01*
X578595Y551221D01*
X578561Y551278D01*
X578536Y551338D01*
X578505Y551373D01*
X578480Y551414D01*
X578429Y551456D01*
X578385Y551504D01*
X578343Y551526D01*
X578306Y551555D01*
X578244Y551576D01*
X578185Y551607D01*
X578131Y551615D01*
X578094Y551627D01*
X578054Y551626D01*
X578000Y551634D01*
X573000Y551634D01*
X572935Y551623D01*
X572869Y551621D01*
X572826Y551603D01*
X572779Y551595D01*
X572722Y551561D01*
X572662Y551536D01*
X572627Y551505D01*
X572586Y551480D01*
X572545Y551429D01*
X572496Y551385D01*
X572474Y551343D01*
X572445Y551306D01*
X572424Y551244D01*
X572393Y551185D01*
X572385Y551131D01*
X572373Y551094D01*
X572373Y551076D01*
X572373Y551075D01*
X572373Y551051D01*
X572366Y551000D01*
X572366Y518000D01*
X572377Y517935D01*
X572379Y517869D01*
X572397Y517826D01*
X572405Y517779D01*
X572439Y517722D01*
X572464Y517662D01*
X572495Y517627D01*
X572520Y517586D01*
X572571Y517545D01*
X572615Y517496D01*
X572657Y517474D01*
X572694Y517445D01*
X572756Y517424D01*
X572815Y517393D01*
X572869Y517385D01*
X572906Y517373D01*
X572946Y517374D01*
X573000Y517366D01*
X578000Y517366D01*
X578065Y517377D01*
G37*
G36*
X491565Y517377D02*
X491565Y517377D01*
X491631Y517379D01*
X491674Y517397D01*
X491721Y517405D01*
X491778Y517439D01*
X491838Y517464D01*
X491873Y517495D01*
X491914Y517520D01*
X491956Y517571D01*
X492004Y517615D01*
X492026Y517657D01*
X492055Y517694D01*
X492076Y517756D01*
X492107Y517815D01*
X492115Y517869D01*
X492127Y517906D01*
X492126Y517946D01*
X492134Y518000D01*
X492134Y551000D01*
X492123Y551065D01*
X492121Y551131D01*
X492103Y551174D01*
X492095Y551221D01*
X492061Y551278D01*
X492036Y551338D01*
X492005Y551373D01*
X491980Y551414D01*
X491929Y551456D01*
X491885Y551504D01*
X491843Y551526D01*
X491806Y551555D01*
X491744Y551576D01*
X491685Y551607D01*
X491631Y551615D01*
X491594Y551627D01*
X491554Y551626D01*
X491500Y551634D01*
X486500Y551634D01*
X486435Y551623D01*
X486369Y551621D01*
X486326Y551603D01*
X486279Y551595D01*
X486222Y551561D01*
X486162Y551536D01*
X486127Y551505D01*
X486086Y551480D01*
X486045Y551429D01*
X485996Y551385D01*
X485974Y551343D01*
X485945Y551306D01*
X485924Y551244D01*
X485893Y551185D01*
X485885Y551131D01*
X485873Y551094D01*
X485873Y551076D01*
X485873Y551075D01*
X485873Y551051D01*
X485866Y551000D01*
X485866Y537634D01*
X482500Y537634D01*
X482435Y537623D01*
X482369Y537621D01*
X482326Y537603D01*
X482279Y537595D01*
X482222Y537561D01*
X482162Y537536D01*
X482127Y537505D01*
X482086Y537480D01*
X482045Y537429D01*
X481996Y537385D01*
X481974Y537343D01*
X481945Y537306D01*
X481924Y537244D01*
X481893Y537185D01*
X481885Y537131D01*
X481873Y537094D01*
X481874Y537054D01*
X481866Y537000D01*
X481866Y532000D01*
X481877Y531935D01*
X481879Y531869D01*
X481897Y531826D01*
X481905Y531779D01*
X481939Y531722D01*
X481964Y531662D01*
X481995Y531627D01*
X482020Y531586D01*
X482071Y531545D01*
X482115Y531496D01*
X482157Y531474D01*
X482194Y531445D01*
X482256Y531424D01*
X482315Y531393D01*
X482369Y531385D01*
X482406Y531373D01*
X482446Y531374D01*
X482500Y531366D01*
X485866Y531366D01*
X485866Y518000D01*
X485877Y517935D01*
X485879Y517869D01*
X485897Y517826D01*
X485905Y517779D01*
X485939Y517722D01*
X485964Y517662D01*
X485995Y517627D01*
X486020Y517586D01*
X486071Y517545D01*
X486115Y517496D01*
X486157Y517474D01*
X486194Y517445D01*
X486256Y517424D01*
X486315Y517393D01*
X486369Y517385D01*
X486406Y517373D01*
X486446Y517374D01*
X486500Y517366D01*
X491500Y517366D01*
X491565Y517377D01*
G37*
G36*
X667065Y517377D02*
X667065Y517377D01*
X667131Y517379D01*
X667174Y517397D01*
X667221Y517405D01*
X667278Y517439D01*
X667338Y517464D01*
X667373Y517495D01*
X667414Y517520D01*
X667456Y517571D01*
X667504Y517615D01*
X667526Y517657D01*
X667555Y517694D01*
X667576Y517756D01*
X667607Y517815D01*
X667615Y517869D01*
X667627Y517906D01*
X667626Y517946D01*
X667634Y518000D01*
X667634Y551000D01*
X667623Y551065D01*
X667621Y551131D01*
X667603Y551174D01*
X667595Y551221D01*
X667561Y551278D01*
X667536Y551338D01*
X667505Y551373D01*
X667480Y551414D01*
X667429Y551456D01*
X667385Y551504D01*
X667343Y551526D01*
X667306Y551555D01*
X667244Y551576D01*
X667185Y551607D01*
X667131Y551615D01*
X667094Y551627D01*
X667054Y551626D01*
X667000Y551634D01*
X662000Y551634D01*
X661935Y551623D01*
X661869Y551621D01*
X661826Y551603D01*
X661779Y551595D01*
X661722Y551561D01*
X661662Y551536D01*
X661627Y551505D01*
X661586Y551480D01*
X661545Y551429D01*
X661496Y551385D01*
X661474Y551343D01*
X661445Y551306D01*
X661424Y551244D01*
X661393Y551185D01*
X661385Y551131D01*
X661373Y551094D01*
X661373Y551076D01*
X661373Y551075D01*
X661373Y551051D01*
X661366Y551000D01*
X661366Y537634D01*
X658000Y537634D01*
X657935Y537623D01*
X657869Y537621D01*
X657826Y537603D01*
X657779Y537595D01*
X657722Y537561D01*
X657662Y537536D01*
X657627Y537505D01*
X657586Y537480D01*
X657545Y537429D01*
X657496Y537385D01*
X657474Y537343D01*
X657445Y537306D01*
X657424Y537244D01*
X657393Y537185D01*
X657385Y537131D01*
X657373Y537094D01*
X657374Y537054D01*
X657366Y537000D01*
X657366Y532000D01*
X657377Y531935D01*
X657379Y531869D01*
X657397Y531826D01*
X657405Y531779D01*
X657439Y531722D01*
X657464Y531662D01*
X657495Y531627D01*
X657520Y531586D01*
X657571Y531545D01*
X657615Y531496D01*
X657657Y531474D01*
X657694Y531445D01*
X657756Y531424D01*
X657815Y531393D01*
X657869Y531385D01*
X657906Y531373D01*
X657946Y531374D01*
X658000Y531366D01*
X661366Y531366D01*
X661366Y518000D01*
X661377Y517935D01*
X661379Y517869D01*
X661397Y517826D01*
X661405Y517779D01*
X661439Y517722D01*
X661464Y517662D01*
X661495Y517627D01*
X661520Y517586D01*
X661571Y517545D01*
X661615Y517496D01*
X661657Y517474D01*
X661694Y517445D01*
X661756Y517424D01*
X661815Y517393D01*
X661869Y517385D01*
X661906Y517373D01*
X661946Y517374D01*
X662000Y517366D01*
X667000Y517366D01*
X667065Y517377D01*
G37*
G36*
X550065Y517377D02*
X550065Y517377D01*
X550131Y517379D01*
X550174Y517397D01*
X550221Y517405D01*
X550278Y517439D01*
X550338Y517464D01*
X550373Y517495D01*
X550414Y517520D01*
X550456Y517571D01*
X550504Y517615D01*
X550526Y517657D01*
X550555Y517694D01*
X550576Y517756D01*
X550607Y517815D01*
X550615Y517869D01*
X550627Y517906D01*
X550626Y517946D01*
X550634Y518000D01*
X550634Y551000D01*
X550623Y551065D01*
X550621Y551131D01*
X550603Y551174D01*
X550595Y551221D01*
X550561Y551278D01*
X550536Y551338D01*
X550505Y551373D01*
X550480Y551414D01*
X550429Y551456D01*
X550385Y551504D01*
X550343Y551526D01*
X550306Y551555D01*
X550244Y551576D01*
X550185Y551607D01*
X550131Y551615D01*
X550094Y551627D01*
X550054Y551626D01*
X550000Y551634D01*
X545000Y551634D01*
X544935Y551623D01*
X544869Y551621D01*
X544826Y551603D01*
X544779Y551595D01*
X544722Y551561D01*
X544662Y551536D01*
X544627Y551505D01*
X544586Y551480D01*
X544545Y551429D01*
X544496Y551385D01*
X544474Y551343D01*
X544445Y551306D01*
X544424Y551244D01*
X544393Y551185D01*
X544385Y551131D01*
X544373Y551094D01*
X544373Y551076D01*
X544373Y551075D01*
X544373Y551051D01*
X544366Y551000D01*
X544366Y537634D01*
X541000Y537634D01*
X540935Y537623D01*
X540869Y537621D01*
X540826Y537603D01*
X540779Y537595D01*
X540722Y537561D01*
X540662Y537536D01*
X540627Y537505D01*
X540586Y537480D01*
X540545Y537429D01*
X540496Y537385D01*
X540474Y537343D01*
X540445Y537306D01*
X540424Y537244D01*
X540393Y537185D01*
X540385Y537131D01*
X540373Y537094D01*
X540374Y537054D01*
X540366Y537000D01*
X540366Y532000D01*
X540377Y531935D01*
X540379Y531869D01*
X540397Y531826D01*
X540405Y531779D01*
X540439Y531722D01*
X540464Y531662D01*
X540495Y531627D01*
X540520Y531586D01*
X540571Y531545D01*
X540615Y531496D01*
X540657Y531474D01*
X540694Y531445D01*
X540756Y531424D01*
X540815Y531393D01*
X540869Y531385D01*
X540906Y531373D01*
X540946Y531374D01*
X541000Y531366D01*
X544366Y531366D01*
X544366Y518000D01*
X544377Y517935D01*
X544379Y517869D01*
X544397Y517826D01*
X544405Y517779D01*
X544439Y517722D01*
X544464Y517662D01*
X544495Y517627D01*
X544520Y517586D01*
X544571Y517545D01*
X544615Y517496D01*
X544657Y517474D01*
X544694Y517445D01*
X544756Y517424D01*
X544815Y517393D01*
X544869Y517385D01*
X544906Y517373D01*
X544946Y517374D01*
X545000Y517366D01*
X550000Y517366D01*
X550065Y517377D01*
G37*
G36*
X519565Y517377D02*
X519565Y517377D01*
X519631Y517379D01*
X519674Y517397D01*
X519721Y517405D01*
X519778Y517439D01*
X519838Y517464D01*
X519873Y517495D01*
X519914Y517520D01*
X519956Y517571D01*
X520004Y517615D01*
X520026Y517657D01*
X520055Y517694D01*
X520076Y517756D01*
X520107Y517815D01*
X520115Y517869D01*
X520127Y517906D01*
X520126Y517946D01*
X520134Y518000D01*
X520134Y531366D01*
X523500Y531366D01*
X523565Y531377D01*
X523631Y531379D01*
X523674Y531397D01*
X523721Y531405D01*
X523778Y531439D01*
X523838Y531464D01*
X523873Y531495D01*
X523914Y531520D01*
X523956Y531571D01*
X524004Y531615D01*
X524026Y531657D01*
X524055Y531694D01*
X524076Y531756D01*
X524107Y531815D01*
X524115Y531869D01*
X524127Y531906D01*
X524126Y531946D01*
X524134Y532000D01*
X524134Y537000D01*
X524123Y537065D01*
X524121Y537131D01*
X524103Y537174D01*
X524095Y537221D01*
X524061Y537278D01*
X524036Y537338D01*
X524005Y537373D01*
X523980Y537414D01*
X523929Y537456D01*
X523885Y537504D01*
X523843Y537526D01*
X523806Y537555D01*
X523744Y537576D01*
X523685Y537607D01*
X523631Y537615D01*
X523594Y537627D01*
X523554Y537626D01*
X523500Y537634D01*
X520134Y537634D01*
X520134Y551000D01*
X520123Y551065D01*
X520121Y551131D01*
X520103Y551174D01*
X520095Y551221D01*
X520061Y551278D01*
X520036Y551338D01*
X520005Y551373D01*
X519980Y551414D01*
X519929Y551456D01*
X519885Y551504D01*
X519843Y551526D01*
X519806Y551555D01*
X519744Y551576D01*
X519685Y551607D01*
X519631Y551615D01*
X519594Y551627D01*
X519554Y551626D01*
X519500Y551634D01*
X514500Y551634D01*
X514435Y551623D01*
X514369Y551621D01*
X514326Y551603D01*
X514279Y551595D01*
X514222Y551561D01*
X514162Y551536D01*
X514127Y551505D01*
X514086Y551480D01*
X514045Y551429D01*
X513996Y551385D01*
X513974Y551343D01*
X513945Y551306D01*
X513924Y551244D01*
X513893Y551185D01*
X513885Y551131D01*
X513873Y551094D01*
X513873Y551076D01*
X513873Y551075D01*
X513873Y551051D01*
X513866Y551000D01*
X513866Y518000D01*
X513877Y517935D01*
X513879Y517869D01*
X513897Y517826D01*
X513905Y517779D01*
X513939Y517722D01*
X513964Y517662D01*
X513995Y517627D01*
X514020Y517586D01*
X514071Y517545D01*
X514115Y517496D01*
X514157Y517474D01*
X514194Y517445D01*
X514256Y517424D01*
X514315Y517393D01*
X514369Y517385D01*
X514406Y517373D01*
X514446Y517374D01*
X514500Y517366D01*
X519500Y517366D01*
X519565Y517377D01*
G37*
G36*
X608565Y517377D02*
X608565Y517377D01*
X608631Y517379D01*
X608674Y517397D01*
X608721Y517405D01*
X608778Y517439D01*
X608838Y517464D01*
X608873Y517495D01*
X608914Y517520D01*
X608956Y517571D01*
X609004Y517615D01*
X609026Y517657D01*
X609055Y517694D01*
X609076Y517756D01*
X609107Y517815D01*
X609115Y517869D01*
X609127Y517906D01*
X609126Y517946D01*
X609134Y518000D01*
X609134Y551000D01*
X609123Y551065D01*
X609121Y551131D01*
X609103Y551174D01*
X609095Y551221D01*
X609061Y551278D01*
X609036Y551338D01*
X609005Y551373D01*
X608980Y551414D01*
X608929Y551456D01*
X608885Y551504D01*
X608843Y551526D01*
X608806Y551555D01*
X608744Y551576D01*
X608685Y551607D01*
X608631Y551615D01*
X608594Y551627D01*
X608554Y551626D01*
X608500Y551634D01*
X603500Y551634D01*
X603435Y551623D01*
X603369Y551621D01*
X603326Y551603D01*
X603279Y551595D01*
X603222Y551561D01*
X603162Y551536D01*
X603127Y551505D01*
X603086Y551480D01*
X603045Y551429D01*
X602996Y551385D01*
X602974Y551343D01*
X602945Y551306D01*
X602924Y551244D01*
X602893Y551185D01*
X602885Y551131D01*
X602873Y551094D01*
X602873Y551076D01*
X602873Y551075D01*
X602873Y551051D01*
X602866Y551000D01*
X602866Y537634D01*
X599500Y537634D01*
X599435Y537623D01*
X599369Y537621D01*
X599326Y537603D01*
X599279Y537595D01*
X599222Y537561D01*
X599162Y537536D01*
X599127Y537505D01*
X599086Y537480D01*
X599045Y537429D01*
X598996Y537385D01*
X598974Y537343D01*
X598945Y537306D01*
X598924Y537244D01*
X598893Y537185D01*
X598885Y537131D01*
X598873Y537094D01*
X598874Y537054D01*
X598866Y537000D01*
X598866Y532000D01*
X598877Y531935D01*
X598879Y531869D01*
X598897Y531826D01*
X598905Y531779D01*
X598939Y531722D01*
X598964Y531662D01*
X598995Y531627D01*
X599020Y531586D01*
X599071Y531545D01*
X599115Y531496D01*
X599157Y531474D01*
X599194Y531445D01*
X599256Y531424D01*
X599315Y531393D01*
X599369Y531385D01*
X599406Y531373D01*
X599446Y531374D01*
X599500Y531366D01*
X602866Y531366D01*
X602866Y518000D01*
X602877Y517935D01*
X602879Y517869D01*
X602897Y517826D01*
X602905Y517779D01*
X602939Y517722D01*
X602964Y517662D01*
X602995Y517627D01*
X603020Y517586D01*
X603071Y517545D01*
X603115Y517496D01*
X603157Y517474D01*
X603194Y517445D01*
X603256Y517424D01*
X603315Y517393D01*
X603369Y517385D01*
X603406Y517373D01*
X603446Y517374D01*
X603500Y517366D01*
X608500Y517366D01*
X608565Y517377D01*
G37*
G36*
X374565Y517377D02*
X374565Y517377D01*
X374631Y517379D01*
X374674Y517397D01*
X374721Y517405D01*
X374778Y517439D01*
X374838Y517464D01*
X374873Y517495D01*
X374914Y517520D01*
X374956Y517571D01*
X375004Y517615D01*
X375026Y517657D01*
X375055Y517694D01*
X375076Y517756D01*
X375107Y517815D01*
X375115Y517869D01*
X375127Y517906D01*
X375126Y517946D01*
X375134Y518000D01*
X375134Y551000D01*
X375123Y551065D01*
X375121Y551131D01*
X375103Y551174D01*
X375095Y551221D01*
X375061Y551278D01*
X375036Y551338D01*
X375005Y551373D01*
X374980Y551414D01*
X374929Y551456D01*
X374885Y551504D01*
X374843Y551526D01*
X374806Y551555D01*
X374744Y551576D01*
X374685Y551607D01*
X374631Y551615D01*
X374594Y551627D01*
X374554Y551626D01*
X374500Y551634D01*
X369500Y551634D01*
X369435Y551623D01*
X369369Y551621D01*
X369326Y551603D01*
X369279Y551595D01*
X369222Y551561D01*
X369162Y551536D01*
X369127Y551505D01*
X369086Y551480D01*
X369045Y551429D01*
X368996Y551385D01*
X368974Y551343D01*
X368945Y551306D01*
X368924Y551244D01*
X368893Y551185D01*
X368885Y551131D01*
X368873Y551094D01*
X368873Y551076D01*
X368873Y551075D01*
X368873Y551051D01*
X368866Y551000D01*
X368866Y537634D01*
X365500Y537634D01*
X365435Y537623D01*
X365369Y537621D01*
X365326Y537603D01*
X365279Y537595D01*
X365222Y537561D01*
X365162Y537536D01*
X365127Y537505D01*
X365086Y537480D01*
X365045Y537429D01*
X364996Y537385D01*
X364974Y537343D01*
X364945Y537306D01*
X364924Y537244D01*
X364893Y537185D01*
X364885Y537131D01*
X364873Y537094D01*
X364874Y537054D01*
X364866Y537000D01*
X364866Y532000D01*
X364877Y531935D01*
X364879Y531869D01*
X364897Y531826D01*
X364905Y531779D01*
X364939Y531722D01*
X364964Y531662D01*
X364995Y531627D01*
X365020Y531586D01*
X365071Y531545D01*
X365115Y531496D01*
X365157Y531474D01*
X365194Y531445D01*
X365256Y531424D01*
X365315Y531393D01*
X365369Y531385D01*
X365406Y531373D01*
X365446Y531374D01*
X365500Y531366D01*
X368866Y531366D01*
X368866Y518000D01*
X368877Y517935D01*
X368879Y517869D01*
X368897Y517826D01*
X368905Y517779D01*
X368939Y517722D01*
X368964Y517662D01*
X368995Y517627D01*
X369020Y517586D01*
X369071Y517545D01*
X369115Y517496D01*
X369157Y517474D01*
X369194Y517445D01*
X369256Y517424D01*
X369315Y517393D01*
X369369Y517385D01*
X369406Y517373D01*
X369446Y517374D01*
X369500Y517366D01*
X374500Y517366D01*
X374565Y517377D01*
G37*
D10*
X678500Y757500D03*
X503000Y684200D03*
X444500Y684200D03*
X386000Y684200D03*
X678500Y610700D03*
X620000Y610700D03*
X561500Y610700D03*
X503000Y610700D03*
X444500Y610700D03*
X386000Y610700D03*
X678500Y534500D03*
X620000Y757500D03*
X620000Y534500D03*
X561500Y534500D03*
X503000Y534500D03*
X444500Y534500D03*
X386000Y534500D03*
X561500Y757500D03*
X503000Y757500D03*
X444500Y757500D03*
X386000Y757500D03*
X678500Y684200D03*
X620000Y684200D03*
X561500Y684200D03*
D11*
X814000Y691900D03*
X814000Y666500D03*
X814000Y641100D03*
X814000Y615700D03*
M02*
